<svg width="1024" height="1024" viewBox="0 0 1024 1024" fill="none" xmlns="http://www.w3.org/2000/svg">
<circle cx="512" cy="512" r="512" fill="url(#paint0_linear)"/>
<path d="M744.896 390.944L724.352 411.488L678.464 365.696L656.48 343.712L608.096 295.424L628.736 274.784C648.224 255.296 679.904 255.296 699.488 274.784L712.448 287.744L744.8 320.096C764.48 339.584 764.48 371.36 744.896 390.944Z" fill="white"/>
<path d="M702.463 433.376L667.039 547.424C665.887 550.208 665.023 553.088 664.351 555.968L643.711 622.4C639.487 636.128 628.831 646.88 615.199 651.392L294.079 757.471C291.295 758.335 289.279 754.975 291.295 752.959L492.607 551.648C500.191 555.392 508.831 557.216 517.951 556.544C542.815 554.912 562.975 534.752 564.607 509.888C565.183 500.768 563.359 492.128 559.711 484.544C555.103 474.944 547.519 467.168 538.207 462.176C530.527 458.048 521.695 455.936 512.287 456.32C486.655 457.472 465.631 478.496 464.479 504.128C464.095 513.536 466.207 522.368 470.335 530.048L271.039 729.151C268.351 731.839 263.743 729.055 264.991 725.407L372.319 411.776C376.543 399.392 386.143 389.6 398.527 385.184L473.983 357.92C476.095 357.344 478.207 356.576 480.319 355.616L586.207 317.408L587.455 318.656L634.687 365.792L656.671 387.776L700.831 431.84L702.463 433.376Z" fill="white"/>
<path d="M943.424 511.999C943.424 519.391 943.232 526.783 942.848 534.079C942.368 543.391 941.6 552.703 940.448 561.919C939.2 572.383 930.464 580.639 919.904 580.639H826.88C810.848 580.639 797.792 567.679 797.792 551.551C797.792 535.423 810.848 522.463 826.88 522.463H887.936C888.032 518.911 888.128 515.455 888.128 511.903C888.128 307.615 719.36 141.439 512 141.439C304.544 141.535 135.776 307.711 135.776 511.999C135.776 716.287 304.544 882.464 512 882.464C623.84 882.464 724.448 834.079 793.376 757.568H605.216C589.184 757.568 576.128 744.607 576.128 728.479C576.128 712.448 589.088 699.391 605.216 699.391H849.248C865.28 699.391 878.336 712.448 878.336 728.479C878.336 734.528 876.512 740.096 873.344 744.704C857.12 769.088 838.304 792.031 816.896 813.055C735.392 893.503 627.2 937.664 512 937.664C396.8 937.664 288.512 893.407 207.104 813.055C125.504 732.703 80.5757 625.759 80.5757 511.999C80.5757 398.239 125.504 291.295 207.104 210.847C288.608 130.495 396.896 86.3354 512 86.3354C627.104 86.3354 735.392 130.591 816.896 210.847C898.496 291.295 943.424 398.239 943.424 511.999Z" fill="white"/>
<path d="M927.007 638.912C927.007 648.128 922.687 656.288 916.063 661.664C911.071 665.6 904.831 668 898.015 668H754.495C738.463 668 725.407 655.04 725.407 638.912C725.407 622.784 738.463 609.824 754.495 609.824H898.015C911.551 609.824 922.975 619.136 926.143 631.808C926.719 634.112 927.007 636.512 927.007 638.912Z" fill="white"/>
<defs>
<linearGradient id="paint0_linear" x1="512" y1="0" x2="512" y2="1024" gradientUnits="userSpaceOnUse">
<stop stop-color="#295DFB"/>
<stop offset="1" stop-color="#1434B4"/>
</linearGradient>
</defs>
</svg>
