<svg width="61" height="60" viewBox="0 0 61 60" fill="none" xmlns="http://www.w3.org/2000/svg">
<g id="ai 1">
<g id="Vector">
<path d="M55.9989 17.9408C55.6285 18.8866 54.9136 19.2036 53.9248 19.1867C51.745 19.1516 49.5638 19.1776 47.384 19.175C46.0873 19.1737 45.5016 18.6099 45.4559 17.3328C45.4233 16.426 44.7176 15.7271 43.717 15.6205C43.524 15.5998 43.327 15.605 43.1313 15.605C35.0447 15.605 26.9568 15.6011 18.8702 15.6127C18.4567 15.6127 18.0157 15.6634 17.6361 15.8128C16.9278 16.0895 16.5429 16.6313 16.5429 17.4289C16.5482 25.8071 16.5456 34.1853 16.5482 42.5621C16.5482 43.5508 17.2396 44.2705 18.274 44.3809C18.4032 44.3952 18.5336 44.3965 18.6641 44.3965C26.8811 44.3965 35.0982 44.3978 43.3153 44.3939C43.5566 44.3939 43.8044 44.3705 44.0366 44.3108C44.9876 44.0652 45.4546 43.4598 45.4546 42.4881C45.4546 35.7468 45.4546 29.0056 45.4586 22.2644C45.4586 21.9759 45.4755 21.6771 45.5525 21.4017C45.7364 20.747 46.3743 20.2962 47.054 20.2949C47.731 20.2923 48.3754 20.7431 48.562 21.3965C48.6402 21.6719 48.6611 21.9707 48.6611 22.2592C48.6663 28.2391 48.665 34.2177 48.665 40.1977C48.665 40.3887 48.665 40.5796 48.665 40.8226C48.9533 40.8226 49.192 40.8226 49.4321 40.8226C50.9296 40.8226 52.4272 40.8512 53.9222 40.8122C54.9097 40.7862 55.6258 41.1123 55.9976 42.0581V42.8362C55.5906 43.7534 54.8771 44.0587 53.8882 44.0263C52.2302 43.973 50.5696 44.0185 48.9103 44.0068C48.6181 44.0042 48.4537 44.0587 48.335 44.3692C47.8223 45.7138 46.8557 46.644 45.5251 47.1676C45.1481 47.3157 45.0568 47.495 45.062 47.8678C45.0816 49.3904 45.0789 50.9143 45.062 52.4369C45.0542 53.1527 44.6002 53.7217 43.9375 53.9192C43.2944 54.1128 42.5547 53.914 42.2143 53.3437C42.0094 53.0007 41.8947 52.5603 41.8829 52.1589C41.8425 50.8312 41.8673 49.5021 41.8673 48.1731C41.8673 47.999 41.8673 47.8249 41.8673 47.621H38.8304C38.8304 47.7886 38.8304 47.9588 38.8304 48.1289C38.8278 49.571 38.8395 51.013 38.8186 52.4551C38.8082 53.1761 38.3503 53.7321 37.6811 53.9244C37.0354 54.1102 36.2944 53.9023 35.9644 53.3294C35.7661 52.9838 35.663 52.5421 35.6513 52.1394C35.6135 50.8273 35.637 49.5151 35.637 48.2017C35.637 48.025 35.637 47.847 35.637 47.6314H32.5909C32.5909 47.8158 32.5909 48.0055 32.5909 48.1939C32.587 49.6359 32.6001 51.078 32.5701 52.52C32.5544 53.2359 32.0678 53.7672 31.3791 53.94C30.7333 54.1024 30.0015 53.8543 29.6858 53.2774C29.5162 52.9656 29.4275 52.5759 29.4197 52.2186C29.3897 50.874 29.408 49.5294 29.408 48.1835C29.408 48.0081 29.408 47.8327 29.408 47.6249H26.3619C26.3619 47.8483 26.3619 48.0536 26.3619 48.2602C26.3528 49.7022 26.3645 51.1442 26.3254 52.585C26.3085 53.2307 25.9028 53.6646 25.3105 53.8893C24.7104 54.118 24.1534 53.9842 23.6773 53.5632C23.3016 53.2307 23.1646 52.7929 23.1672 52.2979C23.1724 50.9208 23.1685 49.5437 23.1672 48.1653C23.1672 47.9912 23.1672 47.8171 23.1672 47.6184H20.1303C20.1303 47.7951 20.1303 47.9653 20.1303 48.1354C20.1303 49.5125 20.146 50.8909 20.1251 52.268C20.1055 53.4697 19.165 54.2232 18.0966 53.9283C17.3948 53.7347 16.9395 53.1514 16.933 52.3758C16.9213 50.8532 16.9173 49.3293 16.9369 47.8068C16.9408 47.4599 16.8299 47.3105 16.5064 47.1832C15.1576 46.6505 14.1792 45.719 13.6574 44.3575C13.5491 44.0756 13.4056 44.0042 13.1252 44.0055C11.2871 44.0159 9.44776 44.0185 7.60972 44.0055C6.79179 43.999 6.16824 43.4598 6.02605 42.6894C5.8956 41.9814 6.3026 41.2201 6.99529 40.9681C7.27707 40.8654 7.59798 40.8317 7.90192 40.8291C9.51298 40.8161 11.124 40.8226 12.7351 40.8226C12.9125 40.8226 13.0886 40.8226 13.2987 40.8226V19.175C13.1121 19.175 12.9386 19.175 12.7651 19.175C11.1058 19.175 9.44515 19.1854 7.78582 19.1711C6.50741 19.1594 5.71688 18.1552 6.09519 17.0574C6.32478 16.3922 6.89746 15.9934 7.67494 15.9908C9.46472 15.9843 11.2545 15.9817 13.0443 15.9947C13.373 15.9973 13.5543 15.9297 13.6861 15.5842C14.1935 14.2551 15.1641 13.3483 16.4764 12.8313C16.8586 12.6806 16.9395 12.4961 16.9356 12.1272C16.9186 10.6046 16.9173 9.08067 16.9356 7.55808C16.946 6.75391 17.5031 6.155 18.3001 6.02249C18.9876 5.90817 19.7351 6.3135 19.9829 6.98905C20.086 7.26967 20.1199 7.58926 20.1238 7.89196C20.1382 9.20409 20.1303 10.5175 20.1303 11.8297C20.1303 12.0037 20.1303 12.1791 20.1303 12.3805H23.1672C23.1672 12.209 23.1672 12.0388 23.1672 11.8686C23.1698 10.4097 23.1555 8.95205 23.1842 7.49312C23.1998 6.70194 23.8051 6.11083 24.6035 6.0121C25.2936 5.92636 26.0241 6.36806 26.2458 7.04881C26.3332 7.32033 26.3528 7.62173 26.3554 7.91014C26.3672 9.20669 26.3606 10.5032 26.3606 11.7998C26.3606 11.9765 26.3606 12.1544 26.3606 12.3701H29.4066C29.4066 12.183 29.4066 11.9946 29.4066 11.805C29.4106 10.3629 29.3936 8.92088 29.4275 7.47883C29.4458 6.68505 30.0576 6.10044 30.8573 6.0095C31.5656 5.93025 32.3013 6.40444 32.5061 7.10987C32.5766 7.35411 32.5857 7.62044 32.587 7.87767C32.5949 9.1898 32.5909 10.5032 32.5909 11.8154C32.5909 11.9907 32.5909 12.1661 32.5909 12.374H35.637C35.637 12.1505 35.637 11.9453 35.637 11.74C35.6448 10.298 35.6239 8.85592 35.6748 7.41517C35.7035 6.62789 36.3701 6.05367 37.1593 6.00301C37.8716 5.95624 38.5825 6.4603 38.7665 7.16833C38.8225 7.38399 38.8239 7.61784 38.8239 7.84259C38.8291 9.17161 38.8265 10.5006 38.8265 11.8284C38.8265 12.0024 38.8265 12.1765 38.8265 12.3792H41.8425C41.8503 12.2129 41.8647 12.0427 41.8647 11.8725C41.8673 10.4954 41.8516 9.11705 41.8712 7.73996C41.8881 6.51617 42.8561 5.75357 43.9375 6.07836C44.6289 6.28622 45.0607 6.87343 45.0659 7.65941C45.075 9.15082 45.0816 10.6409 45.0607 12.1324C45.0555 12.5065 45.1494 12.6845 45.5251 12.8326C46.8531 13.36 47.8236 14.285 48.3337 15.6322C48.4511 15.9427 48.6154 15.9973 48.9077 15.9947C50.567 15.983 52.2289 16.0272 53.8856 15.9739C54.8732 15.9427 55.5854 16.2493 55.995 17.1626V17.9408H55.9989Z" fill="#5B6FA3"/>
<path d="M55.9989 24.1637C55.6193 25.1017 54.9058 25.4395 53.9183 25.3888C52.979 25.3394 52.0319 25.4083 51.0953 25.3381C50.0791 25.2615 49.4516 24.2235 49.7947 23.2712C50.0243 22.6359 50.4913 22.2397 51.1749 22.2202C52.2942 22.189 53.416 22.1942 54.5366 22.2202C55.2997 22.2384 55.6924 22.7736 56.0002 23.3881V24.1663L55.9989 24.1637Z" fill="#5B6FA3"/>
<path d="M55.9989 36.6108C55.6011 37.5319 54.8901 37.8683 53.9026 37.8073C53.0612 37.7553 52.2133 37.8073 51.3693 37.793C50.4013 37.7774 49.7321 37.146 49.7086 36.2509C49.6851 35.3571 50.3244 34.6659 51.2871 34.6322C52.3255 34.5958 53.3651 34.6166 54.4048 34.6257C55.2306 34.6322 55.6846 35.144 55.9976 35.8326V36.6108H55.9989Z" fill="#5B6FA3"/>
<path d="M55.9989 30.3879C55.6102 31.3181 54.9005 31.6532 53.9091 31.5948C53.0025 31.5402 52.0893 31.5987 51.1814 31.5636C50.4091 31.5337 49.8312 30.9751 49.7295 30.2398C49.6212 29.459 50.0256 28.7704 50.7561 28.5145C50.9218 28.4574 51.1044 28.4249 51.2792 28.4236C52.3189 28.4145 53.3586 28.4184 54.3983 28.4184C55.2306 28.4184 55.6767 28.9315 55.9989 29.611V30.3892V30.3879Z" fill="#5B6FA3"/>
<path d="M9.15686 25.3615C8.60505 25.3615 8.05064 25.394 7.50275 25.355C6.61568 25.2913 5.98952 24.5963 6.00779 23.7532C6.02605 22.9061 6.68613 22.2306 7.56797 22.2111C8.62331 22.1877 9.67866 22.1877 10.734 22.2111C11.625 22.2306 12.272 22.8905 12.2942 23.748C12.3164 24.6106 11.7111 25.2913 10.8123 25.355C10.2631 25.394 9.70996 25.3628 9.15816 25.3628L9.15686 25.3615Z" fill="#5B6FA3"/>
<path d="M9.19077 37.7891C8.63897 37.7891 8.08586 37.8086 7.53536 37.7852C6.68221 37.7488 6.03518 37.0875 6.00909 36.2587C5.983 35.4324 6.58959 34.6919 7.44013 34.6543C8.5894 34.6036 9.74519 34.6049 10.8945 34.6569C11.7293 34.6958 12.3085 35.4104 12.2955 36.234C12.2824 37.0746 11.6511 37.7423 10.7979 37.7826C10.2631 37.8086 9.72692 37.7878 9.19077 37.7878V37.7891Z" fill="#5B6FA3"/>
<path d="M9.16077 31.5714C8.60896 31.5714 8.05586 31.5961 7.50536 31.5662C6.6496 31.5207 6.01692 30.8465 6.00779 30.0163C5.99865 29.168 6.64047 28.4574 7.5171 28.4314C8.6194 28.3989 9.72562 28.3976 10.8279 28.4353C11.6863 28.4638 12.2981 29.1589 12.2955 30.0033C12.2929 30.8491 11.6785 31.5168 10.8162 31.5649C10.2657 31.5961 9.71257 31.5701 9.16077 31.5714Z" fill="#5B6FA3"/>
<path d="M18.9654 36.6069C18.9954 36.4925 19.0372 36.2353 19.1298 35.9976C20.8374 31.6247 22.5463 27.2531 24.2643 22.8853C24.7626 21.6187 26.1219 21.2614 26.9751 22.1721C27.1681 22.3774 27.3051 22.6528 27.4108 22.9191C29.1249 27.2712 30.8325 31.6273 32.5362 35.9833C32.8897 36.8862 32.6536 37.6761 31.923 38.1074C31.2734 38.4919 30.402 38.3841 29.9389 37.78C29.6702 37.4292 29.5241 36.9823 29.3362 36.5731C29.1288 36.121 29.0518 35.4974 28.7035 35.2519C28.3735 35.0206 27.7643 35.1752 27.279 35.1739C25.9445 35.17 24.61 35.1804 23.2755 35.1661C22.9872 35.1635 22.8385 35.248 22.738 35.5247C22.5006 36.1781 22.2567 36.8329 21.9619 37.4617C21.637 38.1515 20.8974 38.4594 20.1616 38.2776C19.4494 38.1009 18.9667 37.4864 18.9654 36.6095V36.6069ZM27.5256 31.9663C26.9646 30.536 26.4246 29.1576 25.831 27.6441C25.2362 29.1667 24.6974 30.5503 24.1443 31.9663H27.5256Z" fill="#5B6FA3"/>
<path d="M36.1705 24.8444C35.9513 24.8444 35.7739 24.8496 35.5965 24.8444C34.6781 24.8133 34.0076 24.1676 33.9855 23.2933C33.9633 22.4215 34.596 21.7226 35.5209 21.6706C36.267 21.6291 37.0158 21.6564 37.7646 21.6551C38.4808 21.6551 39.1956 21.646 39.9118 21.6577C40.9398 21.6745 41.6416 22.3228 41.6468 23.2413C41.6533 24.1884 40.9528 24.8289 39.8922 24.847C39.7501 24.8496 39.6066 24.86 39.437 24.8691V35.1544C39.6392 35.1544 39.8414 35.1479 40.0449 35.1544C40.9398 35.1869 41.609 35.8222 41.6442 36.6679C41.6807 37.5461 41.0689 38.2594 40.1479 38.3243C39.4031 38.3763 38.653 38.3438 37.9055 38.3464C37.1893 38.349 36.4744 38.3542 35.7583 38.3451C34.7029 38.3321 33.9868 37.6839 33.9828 36.7498C33.9789 35.8131 34.6912 35.1687 35.7465 35.1518C35.8744 35.1492 36.0022 35.1518 36.1692 35.1518V24.8457L36.1705 24.8444Z" fill="#5B6FA3"/>
</g>
</g>
</svg>
