<svg width="20" height="21" viewBox="0 0 20 21" fill="none" xmlns="http://www.w3.org/2000/svg">
<path d="M10 0.500002C8.02219 0.500002 6.08879 1.08649 4.4443 2.18531C2.79981 3.28412 1.51809 4.84591 0.761209 6.67317C0.00433286 8.50043 -0.1937 10.5111 0.192152 12.4509C0.578004 14.3907 1.53041 16.1725 2.92894 17.5711C4.32746 18.9696 6.10929 19.922 8.0491 20.3078C9.98891 20.6937 11.9996 20.4957 13.8268 19.7388C15.6541 18.9819 17.2159 17.7002 18.3147 16.0557C19.4135 14.4112 20 12.4778 20 10.5C20.0009 9.18654 19.7428 7.88579 19.2406 6.67214C18.7383 5.45849 18.0018 4.35576 17.073 3.427C16.1442 2.49824 15.0415 1.76168 13.8279 1.25944C12.6142 0.757202 11.3135 0.499136 10 0.500002ZM7.62025 14.7181L3.9183 11.015C3.66103 10.7477 3.51891 10.3901 3.52246 10.0191C3.52602 9.64814 3.67498 9.29334 3.93733 9.031C4.19967 8.76865 4.55447 8.61969 4.92546 8.61613C5.29646 8.61258 5.65405 8.7547 5.92137 9.01197L8.15726 11.2479C8.22309 11.3141 8.30137 11.3667 8.3876 11.4025C8.47382 11.4384 8.56629 11.4569 8.65968 11.4569C8.75307 11.4569 8.84553 11.4384 8.93176 11.4025C9.01798 11.3667 9.09626 11.3141 9.16209 11.2479L14.072 6.26763C14.3397 6.02173 14.6916 5.88811 15.055 5.89441C15.4184 5.90071 15.7655 6.04644 16.0245 6.30146C16.2834 6.55648 16.4345 6.90128 16.4464 7.26454C16.4582 7.6278 16.33 7.98173 16.0883 8.25313C10.7621 13.6617 9.74413 14.7181 9.74413 14.7181C9.46213 14.9991 9.08028 15.1569 8.68219 15.1569C8.28411 15.1569 7.90225 14.9991 7.62025 14.7181Z" fill="#4AC229"/>
</svg>
