<svg width="16" height="29" viewBox="0 0 16 29" fill="none" xmlns="http://www.w3.org/2000/svg">
<path d="M0.25 14.4751C0.269531 13.0688 0.611328 11.8091 1.27539 10.6958C1.93945 9.56299 2.83789 8.66455 3.9707 8.00049C5.08398 7.33643 6.34375 6.99463 7.75 6.9751C9.15625 6.99463 10.416 7.33643 11.5293 8.00049C12.6621 8.66455 13.5605 9.56299 14.2246 10.6958C14.8887 11.8091 15.2305 13.0688 15.25 14.4751C15.2305 15.8813 14.8887 17.1411 14.2246 18.2544C13.5605 19.3872 12.6621 20.2856 11.5293 20.9497C10.416 21.6138 9.15625 21.9556 7.75 21.9751C6.34375 21.9556 5.08398 21.6138 3.9707 20.9497C2.83789 20.2856 1.93945 19.3872 1.27539 18.2544C0.611328 17.1411 0.269531 15.8813 0.25 14.4751ZM11.1484 13.186C11.3047 13.0103 11.3828 12.8149 11.3828 12.6001C11.3828 12.3853 11.3047 12.1899 11.1484 12.0142C10.9727 11.8579 10.7773 11.7798 10.5625 11.7798C10.3477 11.7798 10.1523 11.8579 9.97656 12.0142L6.8125 15.1782L5.52344 13.8892C5.34766 13.7329 5.15234 13.6548 4.9375 13.6548C4.72266 13.6548 4.52734 13.7329 4.35156 13.8892C4.19531 14.0649 4.11719 14.2603 4.11719 14.4751C4.11719 14.6899 4.19531 14.8853 4.35156 15.061L6.22656 16.936C6.40234 17.0923 6.59766 17.1704 6.8125 17.1704C7.02734 17.1704 7.22266 17.0923 7.39844 16.936L11.1484 13.186Z" fill="#4AC229"/>
</svg>
