<svg xmlns="http://www.w3.org/2000/svg" width="40" height="40" viewBox="0 0 40 40"><g transform="translate(-1286 -1264)"><circle cx="20" cy="20" r="20" transform="translate(1286 1264)" fill="#e3e3e3"/><path d="M10.343,87.5l4.264-4.264a1.341,1.341,0,0,0,0-1.9l-.948-.948a1.341,1.341,0,0,0-1.9,0L7.5,84.657,3.236,80.392a1.341,1.341,0,0,0-1.9,0l-.948.948a1.341,1.341,0,0,0,0,1.9L4.657,87.5.392,91.764a1.341,1.341,0,0,0,0,1.9l.948.948a1.34,1.34,0,0,0,1.9,0L7.5,90.343l4.264,4.264a1.34,1.34,0,0,0,1.9,0l.948-.948a1.341,1.341,0,0,0,0-1.9Z" transform="translate(1299 1197)" fill="#fff"/></g></svg>