<svg width="81" height="81" viewBox="0 0 81 81" fill="none" xmlns="http://www.w3.org/2000/svg">
<path d="M38.7275 4.0202H42.1009C43.038 4.18887 43.9863 4.31069 44.9121 4.53184C54.4495 6.80703 60.8422 14.8958 60.874 24.7387C60.855 24.9522 60.8928 25.167 60.9836 25.3613C61.0745 25.5555 61.2151 25.7222 61.3913 25.8444C63.9888 27.8366 65.1264 30.5185 64.6354 33.7364C64.1444 36.9542 62.2684 39.2407 59.1723 40.2677C57.8979 40.6912 56.468 40.6519 55.1055 40.7906C54.7606 40.8243 54.5095 40.8374 54.3558 41.2272C53.1126 44.2618 50.9136 46.8082 48.0925 48.4801C47.9313 48.5794 47.7177 48.765 47.7177 48.9205C47.6783 49.6908 47.6933 50.4648 47.7083 51.2369C47.7141 51.2922 47.7327 51.3454 47.7626 51.3922C47.7926 51.4391 47.833 51.4783 47.8807 51.5068C48.7915 51.8348 49.5824 52.4345 50.6338 52.4439C52.7815 52.4439 54.9443 52.4102 57.0714 52.6613C65.773 53.6977 73.1158 60.051 75.466 68.507C75.8633 69.9407 76.0507 71.4344 76.3337 72.9V75.9867H46.3027C45.3469 75.3326 45.077 74.6392 45.5062 73.897C45.8716 73.2673 46.4676 73.168 47.1367 73.1699C55.6227 73.1786 64.1081 73.1786 72.5929 73.1699H73.4213C72.7803 62.566 63.4285 55.2813 55.276 55.3657C55.098 55.8229 55.008 56.3027 54.7606 56.6625C52.6654 59.7923 50.5538 62.9109 48.4261 66.0182C47.7083 67.0696 46.8256 67.1427 45.9185 66.2356C44.2618 64.5839 42.6113 62.9259 40.9671 61.2617C40.7909 61.0836 40.7159 60.8062 40.5679 60.5289C38.5532 62.551 36.7746 64.3427 34.9905 66.1288C33.9222 67.197 33.1163 67.1146 32.2599 65.857C30.2995 62.9765 28.3242 60.0997 26.3938 57.2023C26.019 56.6401 25.7716 55.9991 25.4324 55.3282C15.5858 55.5587 7.61135 64.4552 7.46329 73.1755H33.4724C33.7067 73.1755 33.941 73.1642 34.1733 73.1848C34.4693 73.1952 34.7537 73.3024 34.9829 73.49C35.2121 73.6775 35.3734 73.9351 35.4421 74.2231C35.6145 74.8266 35.399 75.3251 34.9118 75.7093C34.7862 75.8086 34.6512 75.8967 34.5182 75.9867H5.48234C4.71957 75.5725 4.38973 74.9446 4.50217 74.0769C4.69896 72.5776 4.7177 71.0202 5.09815 69.5659C7.37334 60.9012 12.8414 55.3938 21.5024 53.0436C24.3136 52.2846 27.2016 52.397 30.0728 52.4364C31.1972 52.4514 32.0612 51.8479 33.0245 51.4618L33.137 49.4565C33.1332 49.3866 33.1332 49.3165 33.137 49.2466C33.2025 48.8399 33.0095 48.6244 32.6647 48.4183C30.3051 47.007 28.3336 45.1423 27.196 42.646C26.5232 41.171 25.7323 40.7531 24.1524 40.7306C20.6347 40.6781 18.0559 38.879 16.7271 35.603C15.4265 32.417 16.0299 29.4502 18.2995 26.8564C18.8093 26.2736 19.6114 25.8538 19.8925 25.1941C20.1886 24.4857 19.9975 23.5823 20.0574 22.7577C20.6628 14.4591 26.6712 7.09939 34.7018 4.86169C36.0194 4.49436 37.3856 4.2957 38.7275 4.0202ZM28.1143 28.5938C28.1143 30.8896 28.015 33.3259 28.1349 35.7529C28.3935 40.9536 30.9067 44.7693 35.6989 46.7803C40.3842 48.7462 44.7697 47.8916 48.6304 44.5763C49.4081 43.9072 50.0322 43.0583 50.7275 42.2917L50.6019 42.1043C49.0689 42.1043 47.534 42.1212 46.0028 42.0931C45.5718 42.0931 45.3619 42.2149 45.1576 42.6066C44.3761 44.1059 43.1185 44.8799 41.4281 44.9174C40.7497 44.9324 40.0718 44.9324 39.3947 44.9174C38.2981 44.8847 37.2573 44.4261 36.4932 43.6389C35.7291 42.8516 35.3017 41.7977 35.3017 40.7006C35.3017 39.6035 35.7291 38.5496 36.4932 37.7624C37.2573 36.9751 38.2981 36.5165 39.3947 36.4838C39.9775 36.467 40.5622 36.4838 41.147 36.4838C43.0099 36.4557 44.3648 37.2635 45.2419 38.9202C45.3112 39.0247 45.4027 39.1125 45.51 39.1773C45.6173 39.2421 45.7376 39.2823 45.8623 39.295C47.7795 39.3231 49.6967 39.295 51.6121 39.3194C51.9869 39.3194 52.1612 39.2013 52.2249 38.8302C52.3318 38.2099 52.5716 37.5971 52.5885 36.9767C52.6635 34.3792 52.6691 31.7816 52.7216 29.1822C52.7309 28.6856 52.4067 28.6893 52.0844 28.6425C49.3448 28.2582 46.7282 27.2566 44.4323 25.7132C44.0444 25.4527 43.7876 25.449 43.3903 25.7132C40.6147 27.518 37.5805 28.6294 34.267 28.7737C32.2561 28.8449 30.2321 28.6593 28.1143 28.5938ZM52.7253 25.8819C52.6447 24.7574 52.6429 23.7529 52.4892 22.769C51.5071 16.4906 45.7629 11.9628 39.4809 12.4819C36.3713 12.7324 33.4729 14.1541 31.3713 16.4595C29.2697 18.765 28.1217 21.7823 28.1593 24.9017C28.1593 25.3384 28.3017 25.4996 28.7215 25.5951C31.0943 26.1506 33.5577 26.1978 35.95 25.7338C38.4569 25.242 40.8219 24.195 42.8712 22.6696C43.6658 22.0849 44.1831 22.0887 44.9683 22.6509C45.1763 22.8008 45.3787 22.9583 45.5905 23.1044C47.711 24.5903 50.1584 25.543 52.7253 25.8819ZM58.0047 24.2795C58.0909 19.032 55.306 12.3694 48.7559 8.97352C42.0765 5.5195 35.5415 6.08174 29.5461 10.6396C25.1119 14.013 22.9698 18.6703 22.7543 24.287L25.2975 24.139C25.5636 15.8216 32.7378 9.77939 40.1368 9.62009C47.2979 9.46641 55.231 15.2425 55.5309 24.1446L58.0047 24.2795ZM25.2581 27.0907C23.2341 26.6934 21.0189 27.6529 19.8232 29.4184C19.2235 30.3175 18.9002 31.3725 18.8932 32.4532C18.8863 33.534 19.1958 34.5931 19.7838 35.4999C20.9664 37.3009 23.1947 38.2924 25.2563 37.9044L25.2581 27.0907ZM55.5609 37.9756C57.9148 38.1068 59.8376 37.4134 61.0783 35.3987C62.319 33.384 62.2665 31.3281 60.9509 29.3846C59.6802 27.5105 57.8136 26.8471 55.5609 27.0364V37.9756ZM51.6421 56.2896L48.6603 54.9421C46.938 54.1643 46.9399 54.1643 45.6111 55.4912C44.541 56.5632 43.4671 57.6296 42.5001 58.5929L47.0092 63.1189L51.6421 56.2896ZM38.2796 58.7709L33.7123 54.2468L29.1507 56.284L33.8491 63.2014L38.2796 58.7709ZM44.8877 49.9063C41.9743 50.7807 38.8693 50.7878 35.9519 49.9269C35.9519 50.6185 35.9369 51.2013 35.9519 51.7823C35.9613 52.0035 35.9837 52.2883 36.1206 52.427C37.5149 53.8664 38.9318 55.2813 40.3823 56.7375C41.8591 55.2645 43.2797 53.8476 44.6928 52.427C44.8 52.3081 44.8629 52.1559 44.8709 51.996C44.8896 51.3363 44.8784 50.686 44.8784 49.9063H44.8877ZM40.476 39.3044C40.1256 39.3044 39.7751 39.2781 39.4265 39.3044C39.0732 39.328 38.7429 39.4876 38.5049 39.7498C38.2669 40.0119 38.1398 40.3561 38.1502 40.71C38.1396 41.0645 38.2688 41.4089 38.5101 41.6688C38.7514 41.9287 39.0854 42.0831 39.4396 42.0987C40.1382 42.1371 40.8383 42.1371 41.5368 42.0987C41.8875 42.0684 42.2139 41.9072 42.4512 41.6472C42.6886 41.3872 42.8194 41.0475 42.8177 40.6955C42.8161 40.3435 42.6821 40.005 42.4423 39.7473C42.2026 39.4895 41.8746 39.3314 41.5237 39.3044C41.1676 39.2781 40.8153 39.3025 40.4667 39.3044H40.476Z" fill="#295DFB"/>
<path d="M39.9906 75.9866C39.8782 75.9079 39.7658 75.833 39.6571 75.7524C39.1136 75.3532 38.8737 74.8284 39.0948 74.1725C39.1807 73.8877 39.3561 73.6381 39.5949 73.4607C39.8337 73.2833 40.1233 73.1876 40.4208 73.1876C40.7182 73.1876 41.0078 73.2833 41.2466 73.4607C41.4854 73.6381 41.6608 73.8877 41.7467 74.1725C41.9547 74.8303 41.7167 75.3532 41.1732 75.7524C41.0645 75.8311 40.9521 75.9079 40.8415 75.9866H39.9906Z" fill="#295DFB"/>
</svg>
