<svg width="61" height="60" viewBox="0 0 61 60" fill="none" xmlns="http://www.w3.org/2000/svg">
<g id="dependable 1">
<g id="Vector">
<path d="M4.33744 25.09C4.67055 24.1857 5.33001 23.8639 6.27114 23.8707C9.85823 23.8952 13.4453 23.8762 17.0324 23.8884C17.3804 23.8884 17.6296 23.7961 17.8747 23.5421C19.6621 21.6847 21.8599 20.813 24.426 20.8225C27.3699 20.8347 30.3137 20.8374 33.2576 20.8225C35.255 20.8116 36.9544 21.481 38.3668 22.9081C39.5828 24.1369 40.8313 25.3304 42.05 26.5565C42.3195 26.828 42.5889 26.9475 42.9776 26.9462C46.784 26.9312 50.5919 26.9516 54.3983 26.9271C55.3394 26.9217 56.0016 27.2394 56.3334 28.1464V45.1529C55.9529 46.0232 55.292 46.3355 54.3523 46.2989C52.9833 46.2459 51.602 46.3858 50.2438 46.2581C48.8139 46.1237 47.7726 46.622 46.7217 47.5562C44.1909 49.8061 41.5612 51.9459 38.9639 54.1198C37.1738 55.6188 34.9435 55.741 33.1655 54.4552C32.3896 53.8944 31.8656 53.1367 31.5216 52.2596C27.6028 53.1177 25.5282 51.7301 25.0069 47.9635C23.8735 47.434 22.7062 47.2208 21.4645 47.2914C20.2999 47.3566 19.13 47.2901 17.9627 47.3118C17.3601 47.3226 16.8902 47.1108 16.4745 46.6858C15.4806 45.6675 14.4582 44.6763 13.4683 43.6539C13.1772 43.3538 12.8874 43.2167 12.4568 43.2221C10.4094 43.2465 8.36056 43.2004 6.31447 43.2479C5.37606 43.2696 4.71253 42.9723 4.33337 42.1005V25.0941L4.33744 25.09ZM44.6269 30.0148C44.5876 30.7181 44.6364 31.3753 44.501 31.9917C43.7386 35.4568 39.5665 36.7617 36.9612 34.3557C36.0404 33.5057 35.1805 32.5892 34.2908 31.7066C33.7261 31.1458 33.2468 30.3692 32.5657 30.0908C31.8669 29.8043 30.9691 29.9822 30.1594 30.0053C29.8994 30.0134 29.5947 30.1193 29.3943 30.2836C27.7341 31.6509 26.0929 33.044 24.4476 34.429C23.2425 35.4433 22.0292 36.4494 20.8348 37.4759C19.8991 38.2811 20.1429 39.7244 21.2708 40.1059C21.8897 40.3164 22.4232 40.1317 22.9121 39.7149C24.1755 38.6382 25.4483 37.5723 26.7212 36.5064C27.4687 35.8805 28.4139 35.9212 28.9813 36.5947C29.5459 37.2641 29.4214 38.1942 28.6793 38.8432C28.5141 38.9885 28.3435 39.1283 28.1742 39.2695C27.0205 40.2404 25.86 41.203 24.7171 42.1861C24.1443 42.679 24.017 43.3782 24.3298 44.0286C24.6169 44.6274 25.2385 44.9831 25.925 44.8338C26.2689 44.7591 26.6129 44.5541 26.8918 44.326C28.1769 43.275 29.4295 42.1834 30.7119 41.1311C31.695 40.3232 33.0477 40.8229 33.2346 42.0503C33.328 42.6586 33.0653 43.1352 32.6063 43.5194C31.3212 44.5975 30.0212 45.658 28.7687 46.7727C28.464 47.0429 28.2148 47.4693 28.1255 47.8671C27.9833 48.5012 28.2947 49.024 28.8608 49.3566C29.4241 49.6879 30.0822 49.6187 30.6509 49.1462C31.9414 48.0749 33.2183 46.9886 34.5034 45.9092C35.2875 45.2493 36.2232 45.2656 36.8054 45.9445C37.3864 46.6234 37.255 47.5657 36.4859 48.2269C35.9212 48.713 35.3376 49.1787 34.7918 49.6852C34.3409 50.1034 34.2339 50.6506 34.4208 51.2277C34.6023 51.7884 35.0112 52.132 35.5854 52.2487C36.1473 52.3628 36.5996 52.1252 37.0208 51.7694C40.1542 49.1258 43.2985 46.4957 46.4252 43.844C46.933 43.4135 47.4679 43.2004 48.1341 43.2207C49.0982 43.2506 50.0637 43.2289 51.0279 43.2289H53.2541V30.0134H44.6283L44.6269 30.0148ZM7.40861 40.1738C9.38158 40.1738 11.3085 40.1942 13.2354 40.1643C13.9856 40.1521 14.5625 40.3951 15.0784 40.9369C16.0588 41.9675 17.0798 42.9614 18.09 43.9634C18.2051 44.0775 18.3554 44.2282 18.4935 44.2309C19.3859 44.2554 20.2783 44.2431 21.191 44.2431C21.153 43.8684 21.1219 43.552 21.0894 43.2329C20.9729 43.1976 20.8782 43.1623 20.7807 43.1379C18.977 42.6885 17.7894 41.5656 17.352 39.7651C16.9038 37.9226 17.4536 36.338 18.9025 35.1092C21.9398 32.5362 24.9947 29.9849 28.0361 27.4173C28.4328 27.0819 28.8689 26.9258 29.3834 26.9299C30.5345 26.9394 31.6855 26.9516 32.8351 26.9258C33.5244 26.9095 34.0674 27.1322 34.5522 27.6305C35.9713 29.086 37.4202 30.5131 38.8529 31.9564C39.2889 32.3964 39.7886 32.6313 40.4074 32.4778C41.5964 32.1845 41.9647 30.7711 41.0669 29.8681C39.4663 28.2578 37.8305 26.6827 36.2286 25.0737C35.4026 24.2441 34.4276 23.8653 33.2644 23.8707C30.3205 23.8857 27.3753 23.868 24.4314 23.883C23.9277 23.8857 23.4171 23.94 22.9215 24.0323C21.4848 24.3025 20.4299 25.1959 19.4847 26.2415C19.0325 26.7425 18.4989 26.9434 17.8219 26.9394C14.5395 26.919 11.2557 26.9299 7.97328 26.9299H7.40725V40.1684L7.40861 40.1738Z" fill="#5B6FA3"/>
<path d="M23.1883 17.6588C22.8295 17.4619 22.4056 17.3329 22.1226 17.0587C20.7712 15.7538 19.4523 14.4164 18.1347 13.0762C17.4901 12.4204 17.482 11.5012 18.0792 10.8875C18.6872 10.2615 19.6242 10.267 20.2972 10.9323C21.6216 12.2412 22.9324 13.5623 24.2432 14.8848C24.7266 15.3723 24.8864 15.9507 24.6304 16.6065C24.4111 17.1714 23.8532 17.5434 23.1883 17.6588Z" fill="#5B6FA3"/>
<path d="M37.515 17.6384C36.8637 17.561 36.2963 17.2039 36.0607 16.6459C35.7871 15.9969 35.9198 15.4103 36.4019 14.9174C37.3498 13.9507 38.3112 12.9975 39.2673 12.0389C39.6491 11.656 40.0229 11.2622 40.4169 10.8915C41.0628 10.2832 41.962 10.2765 42.5646 10.8576C43.178 11.451 43.2037 12.3933 42.5673 13.045C41.2321 14.4137 39.882 15.7701 38.5089 17.1008C38.2476 17.3533 37.8495 17.4633 37.5137 17.6398L37.515 17.6384Z" fill="#5B6FA3"/>
<path d="M31.8602 10.935C31.8602 11.7307 31.8656 12.5277 31.8588 13.3234C31.8507 14.2684 31.2183 14.95 30.3517 14.9595C29.4701 14.9704 28.8188 14.2738 28.8147 13.3016C28.8093 11.7089 28.8093 10.1176 28.8147 8.5249C28.8174 7.54592 29.4606 6.85752 30.3476 6.86431C31.2332 6.8711 31.8534 7.55814 31.8588 8.54662C31.8629 9.34229 31.8588 10.1393 31.8588 10.935H31.8602Z" fill="#5B6FA3"/>
</g>
</g>
</svg>
