<svg width="81" height="81" viewBox="0 0 81 81" fill="none" xmlns="http://www.w3.org/2000/svg">
<path d="M75.6752 37.269C75.2322 38.0146 74.5669 38.2151 73.7247 38.2133C66.8341 38.1914 59.9434 38.2024 53.0546 38.2006C51.5398 38.2006 51.1205 37.7722 51.1205 36.2409C51.1205 34.1664 51.1205 32.0932 51.1205 30.0211V29.2154C49.2648 29.2154 47.4747 29.2154 45.6846 29.2282C45.6057 29.2472 45.5321 29.2837 45.469 29.3347C45.406 29.3858 45.3551 29.4503 45.32 29.5235C45.0229 30.187 44.733 30.856 44.4961 31.5414C44.4741 31.6499 44.4756 31.7618 44.5005 31.8696C44.5253 31.9775 44.5729 32.0788 44.6401 32.1667C44.939 32.5313 45.3145 32.8448 45.6372 33.1966C46.2169 33.8292 46.2479 34.5456 45.6572 35.149C43.9364 36.9051 42.1992 38.6447 40.4455 40.368C39.8804 40.924 39.144 40.8875 38.5406 40.368C38.5224 40.3534 38.5078 40.3352 38.4914 40.3206C38.0448 39.905 37.5799 39.1211 37.157 39.1503C36.3421 39.2068 35.5528 39.6972 34.7671 40.0618C34.6596 40.1091 34.5958 40.3589 34.5849 40.5193C34.5612 40.9951 34.5849 41.4763 34.5703 41.9539C34.5283 42.8253 34.0234 43.3813 33.1539 43.3922C30.7233 43.4214 28.2928 43.4214 25.8622 43.3922C24.9963 43.3813 24.4039 42.7888 24.5169 41.9339C24.6992 40.574 24.2817 39.7464 22.8763 39.493C22.5299 39.4292 22.2127 39.2104 21.7825 39.0172C21.4179 39.4219 21.0533 39.8594 20.645 40.2586C19.9359 40.9586 19.1867 40.975 18.4921 40.2841C16.8102 38.618 15.138 36.9421 13.4755 35.2565C12.8138 34.5821 12.7573 33.7417 13.501 33.1675C14.6148 32.3107 14.7369 31.474 14.0479 30.269C13.501 29.3248 13.6195 29.2591 12.5002 29.2591C12.2724 29.2591 12.0463 29.2591 11.8184 29.2591C10.958 29.2209 10.413 28.7651 10.4002 27.9211C10.3674 25.4602 10.3674 22.9999 10.4002 20.5401C10.4093 19.6925 10.9617 19.0709 11.7875 19.1948C13.3351 19.4282 13.975 18.7318 14.407 17.3719C14.6075 16.6701 14.6276 16.2672 14.0752 15.8479C13.8289 15.6451 13.6024 15.4192 13.3989 15.1735C12.852 14.5573 12.8283 13.8008 13.3989 13.2138C15.1003 11.4748 16.8211 9.75151 18.5614 8.04404C19.1703 7.4443 19.9961 7.38597 20.4882 8.05316C21.3997 9.28909 22.3221 9.3292 23.6182 8.64014C24.289 8.27555 24.5697 7.99118 24.4914 7.25654C24.3929 6.34508 24.4367 5.45732 25.4484 5.00342H33.6369C34.3151 5.41722 34.6067 6.00055 34.5849 6.81357C34.5466 8.22269 34.5849 8.22451 35.8609 8.7641C37.2117 9.32555 37.2117 9.32555 38.2653 8.28467C39.1768 7.39144 39.8221 7.37321 40.7099 8.26462C42.2739 9.82139 43.8337 11.3824 45.3893 12.9477C46.3135 13.8774 46.3117 14.5154 45.3893 15.4487C44.3648 16.4841 44.3648 16.4823 44.908 17.7912C45.0314 18.0348 45.1285 18.2908 45.1979 18.555C45.2908 19.1019 45.6135 19.1912 46.1093 19.1875C48.9057 19.1657 51.7002 19.1766 54.4947 19.1748C54.7117 19.1748 54.9286 19.1529 55.1802 19.1383C54.8447 18.5258 54.5093 17.9899 54.2468 17.4193C53.4484 15.6766 53.5322 13.8209 53.6763 11.9815C53.8079 10.5098 54.3781 9.11135 55.3131 7.9671C56.248 6.82285 57.5048 5.98541 58.9208 5.56305C60.3587 5.13903 61.8909 5.15723 63.3183 5.61527C64.7458 6.07331 66.0025 6.95003 66.9252 8.13154C68.7117 10.4138 68.6953 13.0534 68.3325 15.6912C68.1666 16.9052 67.494 18.0482 67.0565 19.2167C67.144 19.2331 67.3864 19.2787 67.627 19.3279C71.5974 20.1446 74.1494 22.5216 75.3434 26.3844C75.4893 26.8584 75.5713 27.3506 75.6843 27.8427L75.6752 37.269ZM42.5145 19.0763C42.1627 18.38 41.8328 17.7183 41.4937 17.0602C41.1291 16.3474 41.1765 15.8261 41.7307 15.2591C42.0606 14.9183 42.438 14.6229 42.7497 14.3477L39.3226 10.9443C39.0583 11.256 38.7757 11.6352 38.4367 11.9743C37.9281 12.4938 37.3429 12.5211 36.6849 12.2331C35.4416 11.6862 34.1893 11.1631 32.926 10.6654C32.1804 10.3719 31.8687 10.0019 31.8523 9.20706C31.8523 8.73675 31.8523 8.26644 31.8523 7.77972H27.2166C27.2166 8.23727 27.2166 8.66383 27.2166 9.0904C27.2039 10.0019 26.8776 10.3865 26.0427 10.7073C24.8177 11.1758 23.6073 11.6881 22.4078 12.2203C21.6786 12.5466 21.1317 12.5102 20.5539 11.9232C20.2367 11.6024 19.9687 11.2305 19.7153 10.9261L16.3356 14.3167C16.589 14.5519 16.8971 14.8235 17.1851 15.1133C17.9015 15.8425 17.9143 16.2763 17.5005 17.1896C16.9767 18.3223 16.4985 19.4768 16.0658 20.6532C15.7304 21.5646 15.4059 21.8563 14.4252 21.8727C14.0023 21.8727 13.5794 21.8727 13.1364 21.8727V26.5138C13.6559 26.5138 14.1317 26.5029 14.6057 26.5138C15.3257 26.5357 15.7596 26.9131 16.0203 27.5875C16.5064 28.8563 17.0235 30.1141 17.5716 31.361C17.8924 32.1011 17.8669 32.5732 17.2908 33.1584C16.9778 33.4579 16.6492 33.7409 16.3065 34.006L19.677 37.3693C19.9177 37.1196 20.2093 36.8024 20.5174 36.5016C21.1809 35.8545 21.633 35.8344 22.4843 36.2209C23.6601 36.7532 24.8541 37.2381 26.0627 37.6974C26.8539 38 27.1947 38.3993 27.2093 39.2651C27.2093 39.7136 27.2093 40.1602 27.2093 40.6269H31.8432C31.8432 40.1839 31.8432 39.7792 31.8432 39.3763C31.8432 38.3209 32.133 38.0201 33.132 37.6591C34.2586 37.2508 35.3705 36.7878 36.4552 36.2756C37.4414 35.8071 37.8533 35.8162 38.6299 36.6183C38.8795 36.9026 39.1097 37.2035 39.319 37.5188L42.7406 34.0917C42.5036 33.8766 42.2265 33.6433 41.9695 33.3881C41.1 32.5222 41.058 32.1321 41.6468 31.0438C41.9531 30.4769 42.2083 29.8826 42.4781 29.3193L37.4395 28.9784C36.7603 30.1002 35.8497 31.0643 34.7685 31.8063C33.6873 32.5484 32.4604 33.0515 31.1694 33.282C29.8784 33.5125 28.5532 33.4652 27.282 33.1431C26.0107 32.8211 24.8228 32.2317 23.7973 31.4143C22.7718 30.5969 21.9324 29.5703 21.335 28.403C20.7375 27.2356 20.3958 25.9542 20.3327 24.6444C20.2695 23.3345 20.4863 22.0263 20.9686 20.8068C21.4509 19.5873 22.1876 18.4847 23.1296 17.5724C25.0893 15.693 27.45 14.8071 30.1515 15.0112C33.3927 15.2537 35.8317 16.8797 37.4031 19.419L42.5145 19.0763ZM72.9062 35.4461C72.9226 35.2821 72.9445 35.1745 72.9445 35.0651C72.9445 32.9469 72.97 30.8269 72.9226 28.7105C72.8991 28.0279 72.7763 27.3524 72.558 26.7052C71.5682 23.6847 68.9614 21.9146 65.5416 21.9128C57.0614 21.9128 48.5818 21.9128 40.1028 21.9128C39.8528 21.9082 39.6027 21.9173 39.3536 21.9401C38.8988 21.9947 38.4719 22.1882 38.131 22.4941C37.7901 22.8001 37.5518 23.2037 37.4487 23.65C37.0987 25.143 38.1578 26.4683 39.7528 26.4737C43.8216 26.4865 47.8921 26.4737 51.9664 26.4737C53.4247 26.4737 53.8476 26.8894 53.8494 28.3258V35.4188H66.3875C66.3875 33.605 66.3875 31.8331 66.3875 30.0631C66.3875 29.0878 66.8833 28.5099 67.7072 28.4917C68.5658 28.4735 69.1054 29.0604 69.1109 30.0576C69.1218 31.6071 69.1109 33.1565 69.1109 34.7042C69.1109 34.943 69.1309 35.1836 69.1437 35.4334L72.9062 35.4461ZM23.0513 24.2844C23.0725 25.699 23.5563 27.0678 24.4288 28.1815C25.3013 29.2952 26.5145 30.0926 27.8829 30.4518C29.2513 30.8111 30.6997 30.7123 32.0068 30.1707C33.3138 29.6291 34.4075 28.6745 35.1208 27.4526C35.3268 27.1008 35.3942 26.8183 35.1828 26.399C34.4427 24.9261 34.4937 23.4276 35.1737 21.9256C35.2858 21.6541 35.2858 21.3493 35.1737 21.0779C33.8119 18.4821 30.7184 17.1623 27.8692 17.9297C24.9981 18.7063 22.9747 21.3677 23.0513 24.2844ZM65.7075 13.6185H65.744C65.744 13.2539 65.7549 12.8894 65.744 12.5248C65.6583 10.1021 63.7388 8.11514 61.3963 8.00394C58.8187 7.8818 56.6786 9.62087 56.4252 12.1328C56.3286 13.1291 56.3341 14.1327 56.4416 15.1279C56.6859 17.4065 58.7093 19.1383 61.0354 19.1693C63.3177 19.1966 65.3958 17.4394 65.6984 15.1844C65.733 14.663 65.733 14.1399 65.6984 13.6185H65.7075Z" fill="#295DFB"/>
<path d="M6.76813 75.0034C6.01892 74.6006 5.76188 73.9881 5.78923 73.1441C5.85668 71.2555 5.67438 69.3524 5.88584 67.4784C6.3361 63.5191 8.9447 60.8831 13.0062 60.0355C12.9985 59.9533 12.9782 59.8727 12.946 59.7967C11.6007 57.7112 11.608 55.4217 12.0983 53.1321C12.7546 50.0714 15.7897 47.9514 18.8431 48.2412C22.1481 48.5566 24.6418 51.1305 24.7931 54.3862C24.8843 56.3349 24.8788 58.2654 23.6994 59.855C24.815 60.3344 25.9598 60.6717 26.9314 61.2878C27.903 61.904 28.7161 62.8008 29.6348 63.6066C30.2806 62.6666 31.1107 61.8677 32.0745 61.2582C33.0384 60.6488 34.1161 60.2414 35.2421 60.061C34.914 58.9818 34.4437 57.9282 34.2978 56.8326C34.0791 55.192 34.1155 53.5167 34.8538 51.9472C35.4758 50.6306 36.5217 49.5609 37.824 48.9094C39.1263 48.2579 40.6095 48.0624 42.0361 48.3542C44.9382 48.9412 47.0838 51.5352 47.1731 54.5339C47.2296 56.4388 47.2187 58.3237 45.9299 60.0027C48.4819 60.4474 50.4325 61.6652 51.878 63.7597C53.3364 61.7107 55.2431 60.4347 57.6257 60.0537C57.2976 59.0493 56.809 58.0704 56.6796 57.0459C56.3661 54.6032 56.4973 52.2152 58.3457 50.2683C59.2225 49.3319 60.3577 48.6772 61.6073 48.3874C62.8569 48.0975 64.1644 48.1856 65.3638 48.6404C66.5633 49.0951 67.6005 49.8961 68.3438 50.9415C69.0871 51.987 69.5029 53.2298 69.5384 54.512C69.5986 56.4206 69.5713 58.3037 68.297 59.9808L69.2085 60.2032C70.9704 60.629 72.5448 61.6189 73.6923 63.022C74.8397 64.4251 75.4973 66.1648 75.565 67.9761C75.6398 69.799 75.5814 71.6219 75.6051 73.4448C75.6161 74.2068 75.2405 74.679 74.5916 74.987H46.4713C46.4258 74.9394 46.377 74.8949 46.3254 74.854C45.6509 74.4055 45.414 73.8787 45.5963 73.2607C45.7931 72.5972 46.2926 72.2654 47.1129 72.2527H50.509C50.509 70.7943 50.5838 69.4545 50.4926 68.1183C50.2757 64.879 47.884 62.6915 44.6356 62.6842C41.9012 62.6842 39.1778 62.6605 36.4489 62.6842C33.8366 62.7152 31.4668 64.5745 31.0822 67.1594C30.8379 68.8 31.0366 70.5027 31.0366 72.2472C32.1723 72.2472 33.3718 72.2271 34.5713 72.2472C35.5884 72.2691 36.272 73.1987 35.871 74.0701C35.7051 74.4347 35.3059 74.679 35.0124 74.9816L6.76813 75.0034ZM8.64027 72.2107H28.1528C28.1528 70.7907 28.222 69.4217 28.1382 68.0636C27.945 64.9829 25.5077 62.7206 22.4179 62.7024C19.6707 62.686 16.9218 62.6823 14.1728 62.7024C11.4239 62.7224 9.04131 64.6566 8.66761 67.4219C8.45798 68.9878 8.63115 70.5938 8.63115 72.2107H8.64027ZM72.847 72.2417C72.847 70.7834 72.9054 69.398 72.8343 68.0144C72.7587 66.59 72.1428 65.2481 71.1121 64.2621C70.0814 63.2761 68.7135 62.7202 67.2871 62.7079C64.4689 62.6763 61.6507 62.6763 58.8325 62.7079C57.6503 62.7171 56.5016 63.1012 55.5516 63.8048C54.6016 64.5084 53.8994 65.4953 53.546 66.6235C52.97 68.4628 53.3637 70.3532 53.2452 72.2417H72.847ZM66.8624 55.4709H66.8114C66.8114 55.1993 66.8114 54.924 66.8114 54.6524C66.7919 53.721 66.4287 52.8297 65.7916 52.15C65.1546 51.4702 64.2888 51.05 63.3606 50.9701C62.4553 50.8918 61.5531 51.1512 60.8278 51.6985C60.1024 52.2458 59.6053 53.0422 59.4322 53.9342C59.2966 54.7876 59.2648 55.6543 59.3374 56.5154C59.4041 57.403 59.786 58.2374 60.4141 58.868C61.0422 59.4987 61.8751 59.8839 62.7624 59.9541C63.6497 60.0243 64.5328 59.7749 65.2523 59.2509C65.9718 58.7269 66.4801 57.9629 66.6856 57.0969C66.7749 56.5595 66.8309 56.017 66.8533 55.4727L66.8624 55.4709ZM44.6228 55.5584L44.4405 55.5128C44.4405 55.2157 44.4405 54.9204 44.4405 54.6232C44.4194 53.6924 44.0534 52.8025 43.4135 52.1262C42.7735 51.4499 41.9053 51.0353 40.977 50.9628C40.0482 50.8883 39.1257 51.169 38.3959 51.7483C37.6661 52.3276 37.1833 53.1622 37.045 54.0836C36.921 55.0297 36.9265 55.9883 37.0614 56.9329C37.2765 58.4842 38.5379 59.6362 40.1257 59.917C41.595 60.1777 43.2374 59.4558 43.9155 58.0704C44.2874 57.3047 44.3877 56.4097 44.6119 55.5602L44.6228 55.5584ZM22.0806 55.4982C22.0806 55.1646 22.097 54.8219 22.0806 54.481C22.0254 53.5521 21.626 52.6771 20.9603 52.0269C20.2945 51.3766 19.4104 50.9979 18.4804 50.9646C17.5485 50.9307 16.6381 51.2498 15.9314 51.8582C15.2247 52.4665 14.7737 53.3193 14.6687 54.2459C14.5793 55.0601 14.5793 55.8817 14.6687 56.6959C14.7439 57.3425 14.988 57.958 15.3764 58.4805C15.7647 59.0031 16.2837 59.4143 16.8811 59.6728C17.4786 59.9314 18.1336 60.0283 18.7803 59.9537C19.4271 59.8791 20.0428 59.6357 20.5658 59.248C21.8145 58.3055 22.1991 57.0003 22.0806 55.4982Z" fill="#295DFB"/>
<path d="M40.33 75.0034C39.8178 74.6516 39.3529 74.2651 39.3948 73.556C39.4191 73.2493 39.5436 72.959 39.7492 72.7301C39.9548 72.5011 40.23 72.3461 40.5323 72.2891C40.8294 72.2439 41.1331 72.2981 41.3962 72.4433C41.6593 72.5884 41.8671 72.8165 41.9872 73.0919C42.1074 73.3673 42.1332 73.6748 42.0606 73.9664C41.9881 74.258 41.8212 74.5174 41.586 74.7044C41.4475 74.8156 41.2907 74.905 41.143 75.0034H40.33Z" fill="#295DFB"/>
</svg>
