<svg width="80" height="81" viewBox="0 0 80 81" fill="none" xmlns="http://www.w3.org/2000/svg">
<g clip-path="url(#clip0_97_4851)">
<path d="M24.5789 71.4985C24.8256 72.613 25.0565 73.6224 25.2666 74.6302C25.5453 75.9373 25.1807 76.5073 23.872 76.7954C19.4735 77.7666 15.0745 78.7351 10.675 79.701C9.54141 79.9494 8.89501 79.5418 8.64664 78.3971C6.96432 70.7104 5.28305 63.0227 3.60285 55.3338C3.29398 53.9216 3.90694 53.0539 5.09147 53.2052C5.88752 53.3071 6.1948 53.8611 6.34605 54.5537C6.93725 57.2465 7.5258 59.9382 8.11169 62.6289C9.08182 67.0815 10.0525 71.5335 11.0237 75.9851C11.0682 76.1872 11.1383 76.3831 11.2211 76.6633L22.2607 74.2433C20.0827 64.3054 17.9238 54.4582 15.7443 44.5107C14.6951 44.7336 13.7191 44.939 12.7463 45.1475C9.66824 45.8183 6.59017 46.4892 3.5121 47.16C2.5234 47.3749 1.82606 47.0135 1.62545 46.2142C1.39778 45.3147 1.8579 44.6301 2.90869 44.3961C7.33156 43.4121 11.7566 42.4394 16.1837 41.4777C17.4383 41.2039 18.0385 41.6178 18.3091 42.8533C18.3744 43.1574 18.4524 43.4583 18.5591 43.9089C18.9794 43.4312 19.3297 43.0428 19.6592 42.6447C24.0328 37.3351 26.8412 31.2468 28.5368 24.6078C28.7279 23.8642 28.9556 23.1303 29.1737 22.3931C29.6847 20.6418 30.8677 19.5767 32.6142 19.2312C34.2557 18.9128 35.6647 19.3458 36.7887 20.7182C39.6386 24.1954 40.4792 28.1422 39.7469 32.4998C39.5558 33.6414 39.4284 34.7925 39.2533 36.0805C40.726 35.7621 42.0618 35.4882 43.3928 35.1953C52.6578 33.1627 61.9212 31.1274 71.183 29.0895C74.4357 28.3763 77.5307 30.2661 78.2774 33.4073C79.0385 36.6075 77.1263 39.6548 73.8275 40.4636C72.592 40.7661 71.3454 41.0176 70.1051 41.293L66.4019 42.1162C68.2806 44.9899 68.0131 47.5962 65.5374 50.0289C66.7315 51.2724 67.3667 52.761 67.2059 54.5314C67.0451 56.3018 66.1583 57.6105 64.7907 58.5945C65.168 59.3905 65.6536 60.1388 65.8797 60.954C66.7601 64.127 64.9085 67.0915 61.6654 67.8C57.3173 68.7553 52.9629 69.6787 48.6228 70.6658C43.9277 71.7389 39.188 72.5095 34.3639 72.3344C31.2991 72.2229 28.2439 71.809 25.1854 71.5383L24.5789 71.4985ZM48.5846 52.8088C48.5401 52.7801 48.4716 52.7403 48.4079 52.6957C46.4114 51.3313 45.523 49.4287 45.9768 47.0676C46.4544 44.5983 48.0783 43.2083 50.5366 42.6782C57.9664 41.0712 65.3925 39.4356 72.8149 37.7713C73.4837 37.6309 74.1099 37.3347 74.6426 36.9068C75.6839 36.012 75.859 34.5107 75.2126 33.3437C74.5073 32.07 73.2113 31.5637 71.5842 31.9203L38.2773 39.2201C36.7171 39.5624 35.9974 38.9176 36.198 37.3096C36.4114 35.5997 36.6136 33.8866 36.9129 32.191C37.5306 28.6883 36.9782 25.5041 34.6999 22.6797C34.2827 22.1623 33.821 21.8264 33.1348 22.0063C32.8222 22.078 32.5365 22.2373 32.311 22.4653C32.0854 22.6934 31.9294 22.9809 31.8612 23.2943C31.6542 24.0617 31.4058 24.8179 31.2084 25.5885C29.1386 33.6796 25.4115 40.8727 19.6656 46.9785C19.4539 47.2045 19.3743 47.7013 19.4443 48.0261C20.8597 54.6047 22.3101 61.1769 23.743 67.7539C23.8449 68.2315 24.0455 68.4448 24.5534 68.5499C31.9446 70 39.5599 69.8589 46.8922 68.136C48.5114 67.7618 50.1353 67.4131 51.8485 67.0326C50.4777 65.0934 50.2962 63.1081 51.2482 61.0559C47.6978 58.8301 47.0578 56.8479 48.5846 52.8088ZM48.7152 48.0499C48.6993 49.6293 50.1672 50.9524 51.6494 50.6339C55.3219 49.8432 58.9906 49.0307 62.6557 48.1964C64.1905 47.8446 65.0152 46.5454 64.6983 45.1221C64.3815 43.6987 63.0855 42.8581 61.5476 43.1877C57.9494 43.9519 54.3576 44.7495 50.7674 45.5551C50.191 45.6724 49.6725 45.9843 49.2988 46.4386C48.9252 46.8928 48.7191 47.4618 48.7152 48.0499ZM50.6257 55.8513C50.62 56.2436 50.703 56.6322 50.8686 56.988C51.0342 57.3437 51.2781 57.6574 51.582 57.9056C51.886 58.1538 52.2421 58.3301 52.6237 58.4212C53.0054 58.5124 53.4028 58.5161 53.786 58.4321C56.6359 57.8356 59.4805 57.213 62.3197 56.5645C63.7956 56.2318 64.6633 54.8435 64.3274 53.4456C63.9915 52.0477 62.6636 51.2469 61.2132 51.5494C58.3623 52.1438 55.513 52.7456 52.6652 53.3548C52.0885 53.4689 51.5693 53.7797 51.1964 54.2342C50.8235 54.6887 50.6201 55.2586 50.6209 55.8465L50.6257 55.8513ZM63.2448 62.4983C63.2607 60.9301 61.9838 59.6325 60.5111 59.9111C58.6705 60.2685 56.8507 60.7256 55.0597 61.2804C53.837 61.6545 53.2336 63.0508 53.5934 64.2512C53.7584 64.8713 54.1599 65.4021 54.7118 65.7295C55.2636 66.0569 55.9218 66.1549 56.5452 66.0025C58.0959 65.673 59.6482 65.3466 61.1925 64.9916C61.7674 64.8719 62.2843 64.5595 62.6575 64.1061C63.0307 63.6527 63.2379 63.0855 63.2448 62.4983Z" fill="#295DFB"/>
<path d="M48.5719 18.2775C48.5162 19.0847 48.1771 19.5782 47.4686 19.7486C46.7107 19.9285 46.1201 19.5528 45.765 18.7933C45.1282 17.4289 44.5503 16.0263 43.786 14.7367C41.8755 11.5206 39.3281 8.97004 35.8621 7.41296C35.0406 7.04518 34.7476 6.26028 35.0836 5.50243C35.4195 4.74459 36.2442 4.46916 37.1008 4.84808C40.6369 6.42585 43.4358 8.90954 45.5183 12.132C46.6025 13.81 47.4065 15.6696 48.3204 17.456C48.4305 17.7211 48.5148 17.9962 48.5719 18.2775Z" fill="#295DFB"/>
<path d="M75.0105 15.9276C75.6585 16.0358 76.3734 16.1011 77.058 16.2842C77.8333 16.4928 78.182 17.179 78.0132 17.9591C77.8699 18.6294 77.2697 19.1452 76.5453 19.0035C73.4375 18.3922 70.8137 19.626 68.3125 21.1752C66.7682 22.1304 65.3496 23.3006 63.9135 24.4231C63.0522 25.0949 62.2657 25.1729 61.6671 24.5138C61.0684 23.8547 61.1894 23.0061 61.9982 22.2992C65.1824 19.5305 68.6007 17.1599 72.8166 16.2317C73.5123 16.0788 74.2304 16.0327 75.0105 15.9276Z" fill="#295DFB"/>
<path d="M73.2416 6.75866C73.2305 7.48944 72.764 7.91772 71.9679 8.15494C70.6035 8.56093 69.1929 8.90164 67.9272 9.52415C65.1919 10.8727 63.4406 13.186 62.2418 15.934C62.1021 16.3054 61.9333 16.6653 61.7371 17.0102C61.5501 17.3053 61.2582 17.5186 60.9203 17.6073C60.5824 17.6959 60.2234 17.6532 59.9157 17.4879C59.6134 17.3426 59.3753 17.0908 59.2472 16.7808C59.1191 16.4709 59.11 16.1245 59.2215 15.8082C61.2754 10.2884 65.3655 6.32561 71.5476 5.33214C72.522 5.1777 73.256 5.83365 73.2416 6.75866Z" fill="#295DFB"/>
<path d="M56.0357 13.5904C56.0357 13.9884 56.0517 14.3864 56.0357 14.7829C55.9912 15.6872 55.4212 16.2571 54.5949 16.2476C53.7686 16.238 53.2145 15.6442 53.2145 14.7367C53.2145 11.9648 52.9184 9.23914 52.0141 6.60261C51.5173 5.15538 50.8025 3.84667 49.6148 2.83091C48.9397 2.25297 48.8378 1.38846 49.3234 0.783458C49.8568 0.121142 50.7038 0.0447209 51.4377 0.641761C53.2575 2.12242 54.2303 4.1444 54.9229 6.31284C55.6727 8.67712 55.9498 11.121 56.0357 13.5904Z" fill="#295DFB"/>
</g>
<defs>
<clipPath id="clip0_97_4851">
<rect width="80" height="80" fill="white" transform="translate(0 0.00341797)"/>
</clipPath>
</defs>
</svg>
