<svg width="13" height="17" viewBox="0 0 13 17" fill="none" xmlns="http://www.w3.org/2000/svg">
<path d="M8.75 0.256836L12.75 4.25684H8.75V0.256836ZM6.25 8.00684C7.1875 8.00684 8 8.81934 8 9.75684C8 10.7256 7.1875 11.5068 6.25 11.5068C5.28125 11.5068 4.5 10.7256 4.5 9.75684C4.5 8.81934 5.28125 8.00684 6.25 8.00684ZM7.75 4.25684C7.75 4.81934 8.1875 5.25684 8.75 5.25684H12.75V14.7568C12.75 15.6006 12.0625 16.2568 11.25 16.2568H2.25C1.40625 16.2568 0.75 15.6006 0.75 14.7568V1.75684C0.75 0.944336 1.40625 0.256836 2.25 0.256836H7.75V4.25684ZM10.5938 13.0693L8.96875 11.5068C9.28125 11.0068 9.5 10.4131 9.5 9.75684C9.5 7.97559 8.03125 6.50684 6.25 6.50684C4.4375 6.50684 3 7.97559 3 9.75684C3 11.5693 4.4375 13.0068 6.25 13.0068C6.84375 13.0068 7.40625 12.8506 7.90625 12.5381L9.53125 14.1318C9.71875 14.3193 10.0312 14.3193 10.25 14.1318L10.5938 13.7881C10.7812 13.5693 10.7812 13.2568 10.5938 13.0693Z" fill="#BFC7DA"/>
</svg>
