<svg width="69" height="69" viewBox="0 0 69 69" fill="none" xmlns="http://www.w3.org/2000/svg">
<path d="M0.666628 34.771C0.66077 16.0079 15.8653 0.773926 34.5968 0.770996C53.3684 0.770996 68.6793 15.9922 68.6666 34.647C68.6549 53.5663 53.5353 68.7466 34.6808 68.771C15.8985 68.7954 0.671509 53.5741 0.666628 34.771ZM55.2008 11.9982C46.3338 4.6742 36.5297 2.11275 25.7094 5.52965C13.5692 9.35961 6.33842 17.9033 4.37428 30.482C2.92461 39.7669 5.68143 48.0089 11.8911 55.2216C13.6932 53.3984 15.3635 51.6777 17.0738 49.9971C17.2762 49.8141 17.4356 49.5886 17.5406 49.3367C17.6456 49.0848 17.6935 48.8127 17.681 48.5401C17.6605 42.9524 17.6693 37.3637 17.6703 31.775C17.6703 29.9899 17.6566 28.2048 17.6752 26.4197C17.6879 25.2429 18.2951 24.6385 19.4597 24.5965C19.898 24.5799 20.3383 24.5916 20.7756 24.5916H24.3817C24.4242 24.4921 24.4569 24.3888 24.4794 24.283C24.4872 22.8508 24.4924 21.4185 24.495 19.9863C24.495 18.3008 25.0046 17.7881 26.6866 17.7871C33.4732 17.7871 40.2559 17.7412 47.0445 17.8232C48.585 17.8408 49.734 17.5205 50.7844 16.3262C52.1071 14.8175 53.6456 13.4991 55.2008 11.9953V11.9982ZM57.3855 14.3956C55.6527 16.1407 53.9785 17.8594 52.2624 19.5331C51.7996 19.9843 51.6454 20.4452 51.6483 21.0741C51.6698 26.0798 51.661 31.0846 51.66 36.0903C51.66 39.514 51.66 42.9384 51.66 46.3634C51.66 47.7159 51.0343 48.3458 49.6793 48.3585C48.9764 48.3653 48.2745 48.3585 47.5717 48.3585H44.8383C44.8383 50.0576 44.848 51.6064 44.8383 53.1552C44.8265 54.5936 44.234 55.1659 42.7999 55.1659C35.2509 55.1659 27.7018 55.1581 20.1518 55.1786C19.1756 55.1786 18.2794 55.121 17.8089 54.1874C16.6453 55.3592 15.5353 56.4754 14.4263 57.5906C24.5887 67.3003 43.291 69.0542 55.9827 56.7957C68.6852 44.5158 67.6631 25.3201 57.3855 14.3927V14.3956ZM41.4654 30.4908C41.2717 30.6194 41.0865 30.7603 40.911 30.9127C34.4185 37.4014 27.9332 43.898 21.4551 50.4024C21.1622 50.6953 21.0997 51.2109 20.881 51.7412H41.4654V30.4908ZM21.0626 45.6798L38.7896 28.0095H21.0665L21.0626 45.6798ZM48.2599 23.5262C47.186 24.6121 46.2528 25.4939 45.4015 26.4558C45.1087 26.7868 44.8656 27.3005 44.8627 27.7321C44.8275 33.1744 44.8383 38.6175 44.8422 44.0598C44.8422 44.3664 44.8734 44.673 44.89 44.964H48.2599V23.5262ZM27.8844 24.5105C28.0378 24.5476 28.1938 24.5734 28.351 24.5877C32.8839 24.5929 37.4161 24.5929 41.9477 24.5877C42.1429 24.5877 42.4094 24.5808 42.5285 24.4627C43.5916 23.4061 44.6303 22.3241 45.7247 21.1981H27.8844V24.5105Z" fill="#295DFB"/>
</svg>
