<svg width="49" height="43" viewBox="0 0 49 43" fill="none" xmlns="http://www.w3.org/2000/svg">
<path d="M19.84 3.584C18.816 4.52266 17.6213 5.71733 16.256 7.168C14.976 8.53333 13.7387 10.112 12.544 11.904C11.3493 13.696 10.2827 15.6587 9.344 17.792C8.49067 19.9253 7.89333 22.144 7.552 24.448C8.064 24.192 8.61867 23.8933 9.216 23.552C9.728 23.3813 10.3253 23.2107 11.008 23.04C11.776 22.784 12.6293 22.656 13.568 22.656C15.7867 22.656 17.664 23.5947 19.2 25.472C20.8213 27.264 21.632 29.568 21.632 32.384C21.632 33.664 21.376 34.9013 20.864 36.096C20.4373 37.2907 19.7547 38.3573 18.816 39.296C17.8773 40.2347 16.7253 41.0027 15.36 41.6C14.08 42.1973 12.6293 42.496 11.008 42.496C9.216 42.496 7.63733 42.1547 6.272 41.472C4.90667 40.7893 3.75467 39.8507 2.816 38.656C1.87733 37.4613 1.152 36.096 0.64 34.56C0.213333 32.9387 0 31.232 0 29.44C0 26.5387 0.426667 23.7653 1.28 21.12C2.21867 18.3893 3.456 15.7867 4.992 13.312C6.528 10.752 8.32 8.36267 10.368 6.144C12.416 3.92533 14.6347 1.87733 17.024 0L19.84 3.584ZM46.592 3.584C45.568 4.52266 44.3733 5.71733 43.008 7.168C41.728 8.53333 40.4907 10.112 39.296 11.904C38.1013 13.696 37.0347 15.6587 36.096 17.792C35.2427 19.9253 34.6453 22.144 34.304 24.448C34.816 24.192 35.3707 23.8933 35.968 23.552C36.48 23.3813 37.0773 23.2107 37.76 23.04C38.528 22.784 39.3813 22.656 40.32 22.656C42.5387 22.656 44.416 23.5947 45.952 25.472C47.5733 27.264 48.384 29.568 48.384 32.384C48.384 33.664 48.128 34.9013 47.616 36.096C47.1893 37.2907 46.5067 38.3573 45.568 39.296C44.6293 40.2347 43.4773 41.0027 42.112 41.6C40.832 42.1973 39.3813 42.496 37.76 42.496C35.968 42.496 34.3893 42.1547 33.024 41.472C31.6587 40.7893 30.5067 39.8507 29.568 38.656C28.6293 37.4613 27.904 36.096 27.392 34.56C26.9653 32.9387 26.752 31.232 26.752 29.44C26.752 26.5387 27.1787 23.7653 28.032 21.12C28.9707 18.3893 30.208 15.7867 31.744 13.312C33.28 10.752 35.072 8.36267 37.12 6.144C39.168 3.92533 41.3867 1.87733 43.776 0L46.592 3.584Z" fill="white"/>
</svg>
