<svg width="14" height="16" viewBox="0 0 14 16" fill="none" xmlns="http://www.w3.org/2000/svg">
<path d="M9.71289 1.75586C11.8516 3.71875 13.375 6.94141 13.375 8.49414C13.375 12.2148 10.416 15.2324 6.8125 15.2324C3.17969 15.2324 0.25 12.2148 0.25 8.49414C0.25 6.41406 2.27148 2.92773 5.17188 0.232422C6.28516 1.28711 7.28125 2.40039 8.07227 3.51367C8.57031 2.89844 9.09766 2.3125 9.71289 1.75586ZM9.15625 11.7168C10.5918 10.7207 10.9141 8.75781 10.123 7.23438C10.0352 7.0293 9.91797 6.85352 9.80078 6.64844L8.07227 8.61133C8.07227 8.61133 5.37695 5.1543 5.17188 4.91992C3.76562 6.64844 3.0625 7.64453 3.0625 8.75781C3.0625 11.043 4.76172 12.4199 6.87109 12.4199C7.7207 12.4199 8.51172 12.1562 9.15625 11.7168Z" fill="url(#paint0_linear_163_5797)"/>
<defs>
<linearGradient id="paint0_linear_163_5797" x1="-23.0833" y1="-6.29979" x2="5.83472" y2="-24.9698" gradientUnits="userSpaceOnUse">
<stop stop-color="#FF5722"/>
<stop offset="0.503751" stop-color="#FF9636"/>
<stop offset="1" stop-color="#FFD058"/>
</linearGradient>
</defs>
</svg>
