<svg width="80" height="81" viewBox="0 0 80 81" fill="none" xmlns="http://www.w3.org/2000/svg">
<path d="M57.0108 38.7695C57.1843 38.778 57.311 38.7905 57.437 38.7905C59.1092 38.7905 60.7814 38.799 62.4535 38.7905C68.4181 38.7555 73.0309 33.9319 72.8162 27.9689C72.6296 22.8762 68.4336 18.5402 63.3277 18.1693C63.2647 18.1693 63.2017 18.1693 63.1014 18.1693C63.0944 18.3248 63.0835 18.4625 63.0835 18.6009C63.0835 20.0133 63.0578 21.4272 63.0897 22.8389C63.12 24.2108 62.109 25.4241 60.548 25.4194C52.2129 25.393 43.8786 25.4085 35.5434 25.4093C34.999 25.4093 34.4546 25.4093 33.9102 25.4093C32.5468 25.4093 31.5264 24.4138 31.5093 23.0349C31.4921 21.5704 31.5046 20.1051 31.5046 18.6406V18.1483H29.05C29.05 18.5107 29.0539 18.8692 29.05 19.227C29.0415 20.0156 28.6471 20.4566 27.8717 20.5531C27.3483 20.6184 26.8257 20.6868 26.2159 20.7654C26.5721 21.2235 26.8785 21.617 27.1842 22.0098C27.7418 22.7308 27.7084 23.2861 27.0644 23.9308C26.0207 24.9771 24.9759 26.0222 23.9301 27.0659C23.29 27.7052 22.7316 27.7356 22.0083 27.1748C21.6132 26.8691 21.2196 26.5627 20.7639 26.2088C20.6861 26.8124 20.6208 27.335 20.5562 27.8577C20.4606 28.6354 20.0196 29.0422 19.2395 29.0445C17.684 29.0497 16.1285 29.0497 14.573 29.0445C13.8139 29.0445 13.3698 28.6432 13.268 27.8849C13.1972 27.3599 13.1365 26.8334 13.0657 26.2555C12.9697 26.3061 12.8765 26.3619 12.7865 26.4227C12.4669 26.6662 12.1519 26.9158 11.8338 27.1608C11.0724 27.7488 10.5427 27.713 9.85519 27.0263C8.8182 25.9893 7.78275 24.9536 6.74887 23.9191C6.12045 23.2931 6.08467 22.737 6.62521 22.037C6.93631 21.638 7.2474 21.2414 7.60595 20.7755C7.04675 20.6977 6.55521 20.6324 6.06289 20.5717C5.13115 20.4527 4.76794 20.0491 4.76794 19.1088C4.76794 17.6311 4.76794 16.1533 4.76794 14.6756C4.76794 13.7804 5.16693 13.3534 6.06212 13.2523C6.54976 13.1995 7.03508 13.1341 7.61761 13.0633L7.09263 12.3875C6.90208 12.1417 6.70376 11.9014 6.52099 11.6494C6.12823 11.105 6.16011 10.5022 6.63143 10.0262C7.75087 8.89228 8.87731 7.76481 10.0107 6.64381C10.5038 6.15617 11.1089 6.11961 11.6642 6.5326C12.1107 6.86314 12.5454 7.21079 13.0541 7.60433C13.1233 7.07391 13.1917 6.60959 13.2438 6.14372C13.3558 5.13576 13.7502 4.771 14.7519 4.771C16.2296 4.771 17.7073 4.771 19.1851 4.771C20.0196 4.771 20.4582 5.16609 20.5562 5.98506C20.6184 6.49682 20.6877 7.0078 20.7654 7.60978L21.936 6.70059C22.7611 6.05895 23.2581 6.09006 24.0009 6.82969C25.0182 7.84699 26.0355 8.86454 27.0528 9.88236C27.7115 10.5411 27.7411 11.0855 27.1632 11.8322C26.8645 12.221 26.5659 12.606 26.219 13.054C26.7704 13.1263 27.2503 13.194 27.731 13.2508C28.6837 13.362 29.0461 13.7657 29.0485 14.7285C29.0485 15.7092 29.0485 15.7092 30.0502 15.7092H31.51C31.51 15.3274 31.51 14.9844 31.51 14.6406C31.51 13.4094 31.503 12.1783 31.51 10.9471C31.5163 9.39704 32.4962 8.41863 34.0369 8.41863C42.8511 8.41863 51.6654 8.4373 60.4804 8.4023C62.1206 8.3953 63.1333 9.6397 63.0936 10.9922C63.0516 12.4163 63.0858 13.8434 63.0874 15.2698V15.6812C63.8503 15.8049 64.5838 15.8858 65.2993 16.0445C71.2654 17.3705 75.3945 22.737 75.2257 28.9317C75.0647 34.8698 70.5592 40.066 64.6483 40.993C63.0609 41.2419 61.4199 41.1603 59.8029 41.2069C58.8976 41.2326 57.99 41.2116 57.0349 41.2116C57.0279 41.3671 57.0163 41.5071 57.0155 41.6432C57.0155 43.0564 57.0155 44.4688 57.0155 45.882C57.0101 47.5044 56.0138 48.4944 54.389 48.4944C45.6005 48.4944 36.8119 48.4944 28.0234 48.4944C26.4446 48.4944 25.442 47.5005 25.4358 45.9279C25.4304 44.5147 25.4358 43.1015 25.4358 41.6891V41.2124H24.9427C22.5058 41.2124 20.0688 41.2124 17.6319 41.2124C11.5989 41.2233 6.97053 46.0414 7.19452 52.0736C7.38273 57.129 11.6417 61.5085 16.683 61.8351C16.7453 61.8398 16.8083 61.8351 16.9078 61.8351C16.9148 61.6796 16.9257 61.5396 16.9265 61.4012C16.9265 59.988 16.9265 58.5748 16.9265 57.1624C16.9265 55.6186 17.9375 54.5959 19.4806 54.5959C28.166 54.5959 36.8508 54.5974 45.5352 54.6005C47.6926 54.6005 48.5046 55.4374 48.5038 57.5964C48.5038 58.8667 48.5038 60.1371 48.5038 61.4074V61.874C49.3088 61.874 50.0694 61.8841 50.8293 61.86C50.9071 61.86 51.0323 61.6601 51.0486 61.5411C51.467 58.5453 52.7597 55.988 55.0525 54.0219C58.7468 50.8564 62.98 50.0375 67.5026 51.8076C72.0042 53.5692 74.6222 57.0123 75.1541 61.8336C75.977 69.2937 69.9036 75.5997 62.3991 75.2108C56.6383 74.9122 51.7711 70.3888 51.0665 64.6576C51.0276 64.3465 50.911 64.2757 50.6279 64.2835C50.0453 64.2998 49.4612 64.2983 48.8787 64.2788C48.594 64.2687 48.4898 64.3566 48.4945 64.6498C48.5077 66.0886 48.503 67.5275 48.5015 68.9663C48.5015 70.5895 47.513 71.5772 45.882 71.5772C37.107 71.5772 28.3314 71.5772 19.5553 71.5772C17.9103 71.5772 16.9265 70.5825 16.9265 68.929C16.9265 67.529 16.9265 66.1291 16.9265 64.7291C16.9265 64.5891 16.9265 64.4492 16.9265 64.3162C16.1643 64.1925 15.4324 64.1093 14.7161 63.9522C8.85034 62.672 4.71272 57.4105 4.77183 51.3472C4.82939 45.4363 9.12022 40.2301 14.9347 39.0767C15.8636 38.9017 16.8064 38.8104 17.7517 38.8037C20.1627 38.7664 22.5737 38.7842 24.9847 38.7998C25.344 38.7998 25.4436 38.7018 25.4389 38.344C25.4187 36.9317 25.428 35.5185 25.4319 34.1053C25.4358 32.5016 26.4259 31.51 28.0281 31.51C36.8555 31.51 45.6829 31.51 54.5104 31.51C55.9508 31.51 56.9937 32.5296 57.0077 33.9747C57.0209 35.4003 57.0116 36.8267 57.0116 38.2523L57.0108 38.7695ZM19.3523 69.1475H46.0578V57.031H19.3523V69.1475ZM54.5765 33.9443H27.8671V46.0531H54.5765V33.9443ZM33.8884 22.9633H60.6429V10.8491H33.8884V22.9633ZM63.099 53.3655C60.5208 53.3622 58.0468 54.3832 56.2213 56.2038C54.3958 58.0245 53.3683 60.4958 53.3647 63.0741C53.3577 68.4406 57.7092 72.813 63.064 72.8232C65.6485 72.8258 68.1282 71.802 69.9579 69.9767C71.7876 68.1514 72.8174 65.6741 72.8209 63.0896C72.8209 57.7356 68.4585 53.367 63.099 53.3655ZM15.5514 26.6397C16.3626 26.6397 17.138 26.6288 17.9134 26.6452C18.1864 26.6514 18.2969 26.5845 18.3256 26.2905C18.4034 25.4785 18.5162 24.6697 18.6251 23.8608C18.7589 22.8669 19.7629 22.4305 20.5764 23.01C20.7133 23.1072 20.8432 23.2153 20.9762 23.3211L22.7736 24.721L24.7273 22.7914C24.1829 22.0914 23.6291 21.3759 23.0699 20.6651C22.7588 20.2668 22.6429 19.836 22.8514 19.3592C23.0598 18.8825 23.4487 18.674 23.9519 18.618C24.7498 18.5286 25.5447 18.4104 26.3435 18.3248C26.5768 18.2991 26.646 18.2081 26.6421 17.9834C26.6312 17.2834 26.6273 16.5834 26.6421 15.8835C26.6483 15.6144 26.5488 15.5304 26.2929 15.5024C25.4553 15.4121 24.6192 15.3118 23.7862 15.1913C22.8856 15.059 22.4602 14.0814 22.961 13.3247C23.0606 13.1738 23.1788 13.0353 23.29 12.8922L24.7086 11.0661L22.786 9.10227C22.0861 9.6467 21.3713 10.2106 20.6511 10.7581C19.7785 11.4207 18.7511 10.9844 18.6165 9.90413C18.5185 9.10694 18.4026 8.3113 18.3225 7.51256C18.2953 7.23957 18.1895 7.17035 17.9337 7.17657C17.2601 7.19057 16.5858 7.19835 15.9115 7.17657C15.6004 7.1649 15.5226 7.2909 15.4915 7.57244C15.4052 8.39686 15.3049 9.22049 15.1804 10.041C15.0467 10.9424 14.0706 11.3632 13.3138 10.8654C13.1412 10.7519 12.9825 10.6165 12.8184 10.489C12.218 10.0223 11.6183 9.5557 11.042 9.10772L9.11011 11.0521C9.65453 11.7521 10.2223 12.4691 10.7753 13.201C11.4084 14.0379 10.9829 15.0559 9.94463 15.1975C9.149 15.3064 8.35258 15.4145 7.55384 15.4938C7.25285 15.5234 7.16496 15.6338 7.17352 15.9278C7.19374 16.6013 7.19218 17.2764 7.17352 17.9499C7.16574 18.2245 7.27151 18.2976 7.52506 18.3248C8.33703 18.4104 9.14589 18.5192 9.95552 18.625C10.7333 18.7269 11.2334 19.4028 11.0288 20.1199C10.9488 20.3516 10.8279 20.567 10.6718 20.756C10.1507 21.4467 9.61409 22.1249 9.08989 22.7992L11.0343 24.7109C11.077 24.6821 11.1424 24.6417 11.2023 24.5958C11.8773 24.0716 12.5446 23.5349 13.2298 23.024C14.034 22.4243 15.0435 22.8529 15.1898 23.8437C15.2201 24.0483 15.2419 24.2544 15.2675 24.4605C15.3632 25.176 15.4558 25.8931 15.5514 26.6397Z" fill="#295DFB"/>
<path d="M26.6149 64.2912C25.4366 64.2912 24.2576 64.3006 23.0793 64.2912C22.2961 64.2834 21.7882 63.7966 21.7882 63.0927C21.7882 62.3889 22.3132 61.888 23.0793 61.8856C25.4493 61.8794 27.8194 61.8794 30.1894 61.8856C30.8023 61.8856 31.255 62.2014 31.4229 62.7116C31.5863 63.2078 31.4331 63.7849 30.9866 64.0509C30.719 64.2009 30.4184 64.2827 30.1117 64.2889C28.945 64.3153 27.7784 64.2998 26.6118 64.2998L26.6149 64.2912Z" fill="#295DFB"/>
<path d="M41.7887 64.285C41.5554 64.285 41.3221 64.3029 41.0887 64.285C40.8027 64.2595 40.5355 64.1315 40.3364 63.9245C40.1374 63.7176 40.0198 63.4457 40.0053 63.1589C39.9742 62.5818 40.3507 62.0125 40.9254 61.9432C41.5139 61.8737 42.1086 61.8737 42.6971 61.9432C43.2742 62.0109 43.6592 62.5779 43.6304 63.1488C43.6174 63.4333 43.503 63.7039 43.3078 63.9114C43.1127 64.119 42.8497 64.2498 42.5665 64.2804C42.3106 64.3045 42.05 64.2843 41.7887 64.285Z" fill="#295DFB"/>
<path d="M35.7432 64.2936C35.5239 64.2936 35.3038 64.3045 35.0845 64.2936C34.7908 64.2819 34.5117 64.1624 34.3005 63.958C34.0893 63.7535 33.9608 63.4785 33.9396 63.1853C33.8953 62.5584 34.3091 61.986 34.9414 61.9191C35.4807 61.8623 36.0245 61.8623 36.5638 61.9191C37.1759 61.9852 37.6005 62.56 37.5624 63.1542C37.5482 63.4477 37.4257 63.7255 37.2185 63.934C37.0114 64.1424 36.7343 64.2667 36.4409 64.2827C36.2076 64.2982 35.9742 64.2827 35.7409 64.2827L35.7432 64.2936Z" fill="#295DFB"/>
<path d="M47.3108 41.2124C46.1185 41.2124 44.927 41.217 43.7331 41.2124C43.135 41.2124 42.6917 40.9137 42.5121 40.4237C42.341 39.9571 42.4428 39.4072 42.8465 39.1226C43.1057 38.9343 43.4133 38.8241 43.7331 38.8052C46.1037 38.7803 48.4774 38.7873 50.8449 38.7951C51.6172 38.7951 52.1359 39.2983 52.1367 40.0014C52.1375 40.7045 51.6172 41.203 50.8472 41.2093C49.6705 41.2194 48.4914 41.2124 47.3108 41.2124Z" fill="#295DFB"/>
<path d="M32.1027 38.8114C32.3602 38.8114 32.6215 38.7842 32.8758 38.8169C33.1614 38.8512 33.4246 38.9888 33.6158 39.2036C33.807 39.4185 33.9131 39.6959 33.9141 39.9835C33.918 40.5863 33.5136 41.1167 32.9124 41.1774C32.3729 41.231 31.8294 41.231 31.29 41.1774C30.6934 41.1182 30.2789 40.5769 30.2882 39.9843C30.2904 39.7035 30.3922 39.4326 30.5755 39.2199C30.7589 39.0072 31.0118 38.8666 31.2892 38.8231C31.5586 38.7944 31.8294 38.7801 32.1004 38.7803L32.1027 38.8114Z" fill="#295DFB"/>
<path d="M38.1574 41.2279C37.8759 41.2108 37.6014 41.2201 37.3361 41.1742C37.0599 41.1246 36.8103 40.9782 36.6322 40.7613C36.4541 40.5444 36.359 40.2711 36.364 39.9905C36.3694 39.4134 36.7785 38.8884 37.3595 38.8324C37.9119 38.7776 38.4683 38.7776 39.0207 38.8324C39.5939 38.8908 39.9976 39.4336 39.9921 40.0107C39.9927 40.2851 39.8974 40.551 39.7227 40.7626C39.5481 40.9742 39.305 41.1181 39.0355 41.1696C38.7446 41.2225 38.4444 41.2116 38.1574 41.2279Z" fill="#295DFB"/>
<path d="M40.6221 15.7139C42.0073 15.7139 43.3925 15.7139 44.7769 15.7139C45.5227 15.7139 46.0485 16.1914 46.0679 16.8743C46.0874 17.5743 45.5647 18.1187 44.8158 18.1187C42.02 18.128 39.224 18.128 36.4277 18.1187C35.6702 18.1187 35.1499 17.5945 35.1577 16.8914C35.1655 16.2062 35.678 15.7147 36.4277 15.7092C37.8277 15.6984 39.2237 15.7092 40.6221 15.7092V15.7139Z" fill="#295DFB"/>
<path d="M50.3596 15.7194C50.5929 15.7194 50.8262 15.7022 51.0595 15.7194C51.3386 15.7428 51.6001 15.8651 51.7969 16.0643C51.9937 16.2635 52.1129 16.5265 52.1328 16.8059C52.1803 17.4102 51.8163 17.988 51.2236 18.0635C50.6357 18.137 50.041 18.1385 49.4527 18.0682C48.8593 17.9982 48.4696 17.4094 48.5194 16.8238C48.5379 16.537 48.6598 16.2667 48.8625 16.0631C49.0652 15.8594 49.3348 15.7362 49.6215 15.7162C49.8657 15.6976 50.1122 15.7162 50.358 15.7162L50.3596 15.7194Z" fill="#295DFB"/>
<path d="M56.4104 15.7201C56.6437 15.7201 56.877 15.7061 57.1103 15.7201C57.3972 15.7341 57.6688 15.8534 57.8731 16.0552C58.0774 16.2569 58.2002 16.527 58.2179 16.8136C58.2606 17.4358 57.878 18.002 57.2628 18.0743C56.6993 18.1409 56.13 18.1409 55.5665 18.0743C54.949 18.0012 54.5663 17.4358 54.6107 16.8144C54.6292 16.5292 54.7512 16.2606 54.9536 16.0588C55.1561 15.8571 55.4251 15.7361 55.7104 15.7185C55.9437 15.7014 56.177 15.7185 56.4104 15.7185V15.7201Z" fill="#295DFB"/>
<path d="M61.7536 64.9982C62.6814 63.886 63.5276 62.8726 64.373 61.8584C65.2526 60.803 66.1276 59.7453 67.0104 58.693C67.1545 58.5064 67.3519 58.3678 67.5764 58.2956C67.8009 58.2234 68.042 58.221 68.268 58.2886C68.7346 58.4099 69.0201 58.7303 69.1289 59.1985C69.172 59.3762 69.1715 59.5616 69.1275 59.739C69.0835 59.9163 68.9972 60.0805 68.8762 60.2174C66.854 62.6481 64.8293 65.0762 62.802 67.5018C62.3151 68.0812 61.5576 68.1076 61.0131 67.5796C59.7942 66.3798 58.5848 65.1706 57.385 63.9521C57.2706 63.8411 57.1795 63.7084 57.1171 63.5618C57.0547 63.4151 57.0223 63.2575 57.0216 63.0981C57.021 62.9387 57.0521 62.7808 57.1133 62.6336C57.1745 62.4865 57.2645 62.353 57.3779 62.2411C57.8539 61.7674 58.5819 61.7605 59.089 62.2535C59.8597 63.0041 60.6142 63.7709 61.3709 64.5355C61.4977 64.6576 61.6003 64.8131 61.7536 64.9982Z" fill="#295DFB"/>
<path d="M12.0655 16.8712C12.0877 15.594 12.6128 14.3771 13.5269 13.4847C14.4409 12.5923 15.6701 12.0965 16.9475 12.1049C18.2248 12.1133 19.4474 12.6252 20.3496 13.5296C21.2518 14.4339 21.7609 15.6576 21.7663 16.935C21.7539 19.6003 19.5536 21.785 16.9 21.7687C16.2606 21.7659 15.6281 21.6368 15.0387 21.3889C14.4493 21.141 13.9147 20.7791 13.4655 20.3241C13.0163 19.8691 12.6614 19.3298 12.4212 18.7373C12.1809 18.1447 12.06 17.5106 12.0655 16.8712ZM16.9147 14.4789C16.4342 14.4781 15.9642 14.6197 15.564 14.8857C15.1637 15.1516 14.8512 15.5302 14.6658 15.9735C14.4804 16.4168 14.4304 16.9052 14.5221 17.3769C14.6138 17.8486 14.8431 18.2826 15.1811 18.6242C15.5191 18.9658 15.9507 19.1996 16.4214 19.2963C16.8922 19.3929 17.381 19.3481 17.8262 19.1673C18.2715 18.9866 18.6533 18.6781 18.9235 18.2807C19.1937 17.8833 19.3401 17.4148 19.3444 16.9342C19.348 16.6129 19.2878 16.2941 19.1673 15.9963C19.0468 15.6985 18.8684 15.4275 18.6424 15.1991C18.4164 14.9707 18.1473 14.7895 17.8508 14.6658C17.5542 14.5422 17.236 14.4787 16.9147 14.4789Z" fill="#295DFB"/>
</svg>
