<svg width="60" height="60" viewBox="0 0 60 60" fill="none" xmlns="http://www.w3.org/2000/svg">
<g id="workflow 1">
<g id="Vector">
<path d="M45.6151 28.202C46.6571 28.202 47.7121 28.305 48.7367 28.1773C50.1401 28.0017 51.1023 26.8334 51.1153 25.4199C51.1414 22.6626 51.1458 19.9037 51.1153 17.1464C51.0964 15.4615 49.8179 14.3135 48.043 14.3121C39.6984 14.3092 31.3537 14.3121 23.0091 14.3121C21.9584 14.3121 20.9062 14.3121 19.7641 14.3121C19.7641 14.5878 19.7728 14.8345 19.7641 15.0812C19.6581 17.8473 17.5074 20.0198 14.7399 20.0924C13.0361 20.1374 11.3294 20.1388 9.62568 20.088C6.99457 20.0097 4.79738 17.8183 4.72047 15.193C4.66967 13.453 4.66967 11.7086 4.72047 9.96851C4.79593 7.31128 6.99602 5.12716 9.65905 5.05024C11.3091 5.00235 12.9606 5.00671 14.6107 5.04008C17.5335 5.09959 19.6857 7.27065 19.7728 10.1993C19.7786 10.3792 19.7728 10.5577 19.7728 10.8276C20.0326 10.8276 20.2589 10.8276 20.4839 10.8276C29.6804 10.8276 38.8784 10.8233 48.075 10.8306C51.3954 10.8335 53.9743 12.9958 54.533 16.2234C54.594 16.5789 54.6085 16.9461 54.6085 17.3075C54.6143 19.956 54.6302 22.606 54.6085 25.2545C54.5809 28.4008 52.6435 30.9129 49.635 31.5427C48.5336 31.7735 47.3653 31.682 46.2261 31.7328C46.0287 31.7415 45.8313 31.7328 45.4787 31.7328C46.0563 32.3119 46.5874 32.7661 47.0184 33.3016C47.2985 33.6499 47.5394 34.0969 47.6106 34.5308C47.7296 35.2652 47.3116 35.9095 46.6571 36.2012C45.9634 36.5103 45.2958 36.4349 44.74 35.9052C43.9258 35.1287 43.1422 34.3219 42.344 33.5295C41.598 32.7879 40.8478 32.0492 40.1004 31.3091C39.3254 30.5428 39.3094 29.4587 40.0713 28.6983C41.5603 27.2122 43.0609 25.7348 44.547 24.2459C44.9664 23.825 45.4424 23.5623 46.0461 23.6189C46.7572 23.6857 47.2768 24.0485 47.5264 24.7262C47.7716 25.3923 47.6701 26.0294 47.1679 26.5417C46.6411 27.0801 46.0708 27.5765 45.5193 28.0917L45.6165 28.2034L45.6151 28.202ZM16.2883 12.6243C16.2883 11.8276 16.3043 11.0294 16.284 10.2341C16.2593 9.22838 15.5685 8.53323 14.5585 8.52017C13.0187 8.5013 11.4789 8.50275 9.9406 8.52017C8.8986 8.53178 8.19765 9.22402 8.18604 10.2602C8.16863 11.8 8.16863 13.3398 8.18604 14.8795C8.19765 15.9157 8.89715 16.6094 9.93769 16.6225C11.4586 16.6399 12.981 16.6384 14.5019 16.6225C15.5787 16.6123 16.2637 15.9244 16.2854 14.8534C16.3 14.1118 16.2883 13.3688 16.2869 12.6257L16.2883 12.6243Z" fill="#5B6FA3"/>
<path d="M22.0628 28.2498C22.118 27.6766 22.1209 27.1484 22.2239 26.6404C22.7203 24.2125 24.7128 22.5232 27.1814 22.4666C28.8489 22.4275 30.5207 22.4245 32.1882 22.4695C34.9194 22.545 37.0977 24.7219 37.1732 27.4575C37.2196 29.1612 37.2211 30.8693 37.1703 32.5746C37.0919 35.2463 34.9122 37.4319 32.2477 37.5102C30.5439 37.561 28.8358 37.5596 27.132 37.5131C24.3732 37.4391 22.2225 35.2536 22.1223 32.486C22.1136 32.2553 22.1223 32.0231 22.1223 31.7604C21.8814 31.7502 21.7044 31.7357 21.5288 31.7357C18.1184 31.7357 14.7065 31.7328 11.2961 31.7357C9.37461 31.7372 8.18459 32.9301 8.18024 34.8661C8.17443 37.4246 8.17443 39.9832 8.18024 42.5417C8.18459 44.4777 9.37316 45.6706 11.2946 45.672C17.355 45.6749 23.414 45.672 29.4744 45.672H29.9504C29.9895 45.6212 30.0287 45.569 30.0679 45.5182C29.5164 45.0088 28.9476 44.5154 28.4178 43.9828C27.8968 43.4589 27.7662 42.8131 28.0405 42.1252C28.2959 41.4837 28.7937 41.1166 29.486 41.0455C30.0432 40.9874 30.5222 41.1775 30.9154 41.5708C32.4436 43.0961 33.979 44.6141 35.4912 46.1553C36.2357 46.9143 36.2328 47.9215 35.484 48.6834C33.9703 50.2231 32.4436 51.7499 30.9038 53.2635C30.171 53.9848 29.0985 53.9732 28.4149 53.2838C27.7285 52.593 27.7372 51.5409 28.4599 50.7978C28.9635 50.2812 29.4976 49.7936 30.0186 49.2929C30.0026 49.2479 29.9852 49.2029 29.9692 49.1579C29.782 49.1579 29.5948 49.1579 29.4076 49.1579C23.3298 49.1579 17.252 49.1666 11.1742 49.1536C7.90015 49.1463 5.32128 46.9636 4.77271 43.7593C4.70015 43.3341 4.69725 42.8915 4.69725 42.4575C4.68999 39.9527 4.68999 37.4493 4.69435 34.9444C4.7016 30.9622 7.41688 28.2527 11.3976 28.2513C14.7544 28.2498 18.1111 28.2513 21.4664 28.2513H22.0585L22.0628 28.2498ZM29.6354 34.0476C30.3959 34.0476 31.1563 34.0592 31.9168 34.0447C32.9951 34.0243 33.6917 33.3481 33.7033 32.2785C33.7207 30.7576 33.7192 29.2352 33.7033 27.7129C33.6917 26.6404 32.9994 25.9511 31.9255 25.9395C30.4046 25.9235 28.8822 25.9235 27.3613 25.9395C26.3179 25.9511 25.6169 26.6419 25.6039 27.6766C25.5865 29.2164 25.5865 30.7561 25.6039 32.2945C25.6155 33.3321 26.3121 34.0185 27.3526 34.0418C28.1131 34.0592 28.8735 34.0447 29.634 34.0461L29.6354 34.0476Z" fill="#5B6FA3"/>
<path d="M54.6665 47.4193C54.6085 48.5586 54.6709 49.7181 54.4677 50.8312C54.0338 53.2054 51.9977 54.8773 49.5843 54.9368C47.8805 54.9789 46.1738 54.9832 44.4715 54.9324C41.8157 54.8541 39.6302 52.6583 39.5547 49.9938C39.5068 48.2727 39.5068 46.5471 39.5547 44.826C39.6302 42.1658 41.8215 39.9701 44.4788 39.8961C46.1999 39.8467 47.9255 39.8467 49.6467 39.8961C52.3373 39.9716 54.4982 42.1586 54.5954 44.8622C54.6259 45.7141 54.5998 46.5675 54.5998 47.4193C54.6215 47.4193 54.6447 47.4208 54.6665 47.4222V47.4193ZM51.1255 47.4193C51.1255 46.6386 51.1414 45.8578 51.1211 45.0785C51.0964 44.0916 50.4187 43.3834 49.4449 43.3689C47.8674 43.3442 46.2885 43.3457 44.7095 43.3689C43.7314 43.3834 43.0377 44.0858 43.0261 45.0683C43.0058 46.6284 43.0058 48.1899 43.0261 49.75C43.0391 50.7572 43.7401 51.4509 44.7545 51.464C46.2972 51.4828 47.8384 51.4828 49.3811 51.464C50.4202 51.4509 51.1023 50.7514 51.124 49.7051C51.14 48.9431 51.1269 48.1812 51.1255 47.4179V47.4193Z" fill="#5B6FA3"/>
</g>
</g>
</svg>
