<svg width="81" height="81" viewBox="0 0 81 81" fill="none" xmlns="http://www.w3.org/2000/svg">
<path d="M12.0149 17.8472V16.9576C12.0149 14.1701 12.0149 11.3826 12.0149 8.59509C12.0149 6.94509 13.042 5.90134 14.6899 5.90134C29.7121 5.90134 44.7351 5.90134 59.7587 5.90134C61.3607 5.90134 62.3774 6.94301 62.3982 8.54926C62.4087 9.24509 62.3982 9.94509 62.3982 10.7826C62.6607 10.5618 62.8357 10.4326 62.9857 10.2826C64.2753 8.99509 65.5545 7.69718 66.8503 6.41801C68.7545 4.54301 71.6212 4.56801 73.5503 6.48676C75.2566 8.18259 75.1962 11.0097 73.3691 12.8784C71.4795 14.8159 69.5566 16.718 67.6357 18.6243C67.4026 18.8125 67.1514 18.9772 66.8857 19.1159C68.1253 20.4034 68.3962 21.7576 68.3941 23.2472C68.376 34.6055 68.3719 45.9631 68.3816 57.3201C68.3816 59.8993 67.0753 61.6951 64.8045 62.2409C64.2959 62.3436 63.7772 62.3869 63.2587 62.3701C57.0462 62.3784 50.8344 62.3784 44.6232 62.3701H43.667V66.5097H44.5357C46.3545 66.5097 48.1753 66.493 49.9941 66.5097C52.3337 66.5388 53.842 68.0263 53.9066 70.3618C53.9378 71.4284 53.9316 72.4993 53.9066 73.5659C53.8816 74.5472 53.4232 74.993 52.4482 74.993C42.2857 74.993 32.1232 74.993 21.9607 74.993C21.0253 74.993 20.5628 74.5451 20.5399 73.6138C20.5149 72.493 20.5045 71.3722 20.5399 70.2534C20.6107 68.0493 22.1107 66.5555 24.3149 66.5138C26.1587 66.4784 28.0045 66.5034 29.8503 66.5034H30.7503V62.3763H11.167C7.91075 62.3763 6.05033 60.5138 6.04825 57.243C6.04825 45.8597 6.09408 34.4763 6.017 23.093C5.99616 20.0263 8.13783 17.7013 11.1878 17.8847C11.464 17.8861 11.74 17.8736 12.0149 17.8472ZM50.3607 36.2305C51.5649 36.2305 52.9128 36.2305 54.2587 36.2305C55.2566 36.2305 55.8212 36.6784 55.8316 37.4555C55.842 38.2326 55.2462 38.7284 54.2857 38.7284C48.2024 38.7284 42.1191 38.7284 36.0357 38.7284C35.0524 38.7284 34.4837 38.2534 34.4795 37.4784C34.4753 36.7034 35.0337 36.2284 36.0274 36.2284C37.8191 36.2284 39.6107 36.2284 41.4566 36.2284C42.0649 34.3763 42.667 32.5472 43.2982 30.6326H42.2837C40.1253 30.6326 37.967 30.6326 35.8107 30.6326C35.0107 30.6326 34.4857 30.1118 34.4857 29.4034C34.4857 28.7326 34.9857 28.2222 35.7357 28.1534C35.9439 28.143 36.1525 28.143 36.3607 28.1534C39.0899 28.1534 41.8191 28.1534 44.5482 28.1534C44.7774 28.1534 45.0878 28.1951 45.2212 28.068C46.2628 27.0805 47.2712 26.0576 48.4441 24.893H47.3545C43.5337 24.893 39.7142 24.893 35.8962 24.893C35.0149 24.893 34.492 24.4159 34.4837 23.6763C34.4753 22.9368 34.9982 22.4513 35.8628 22.3993C36.0712 22.3868 36.2795 22.3993 36.4878 22.3993C41.0107 22.3993 45.5337 22.3993 50.0587 22.4138C50.3381 22.4312 50.6178 22.3857 50.8774 22.2808C51.137 22.1759 51.3698 22.0142 51.5587 21.8076C53.0607 20.2118 54.6232 18.6722 56.167 17.1222C56.3191 16.9701 56.4503 16.7972 56.6295 16.5868H14.5628V50.2722H59.8587V26.4222L50.3607 36.2305ZM8.53575 52.8847C8.53575 54.3263 8.53575 55.7263 8.53575 57.1243C8.53575 59.1659 9.2545 59.8743 11.3107 59.8743H49.7503C54.2976 59.8743 58.8462 59.8743 63.3962 59.8743C65.0795 59.8743 65.8691 59.0805 65.8962 57.3888C65.9066 56.4763 65.8962 55.5659 65.8962 54.6534V52.8868L8.53575 52.8847ZM14.5628 14.0243H35.3045C43.0489 14.0243 50.792 14.018 58.5337 14.0055C58.9232 14.0055 59.3191 13.7451 59.6962 13.5722C59.7504 13.5377 59.7958 13.4912 59.8291 13.4363C59.8623 13.3814 59.8824 13.3195 59.8878 13.2555C59.9003 11.6555 59.8878 10.0555 59.8878 8.44926H14.5628V14.0243ZM49.4399 33.3055C49.6212 33.1388 49.7753 33.0055 49.9191 32.8597C57.0719 25.6944 64.2246 18.5284 71.3774 11.3618C71.5449 11.2001 71.6982 11.0245 71.8357 10.8368C72.0369 10.5639 72.1684 10.246 72.2189 9.9108C72.2694 9.57557 72.2373 9.23309 72.1254 8.91307C72.0136 8.59305 71.8253 8.30516 71.5769 8.0744C71.3286 7.84363 71.0277 7.67696 70.7003 7.58884C69.7482 7.32009 69.0524 7.74509 68.4087 8.39093C61.2628 15.5604 54.1135 22.727 46.9607 29.8909C46.8045 30.0472 46.667 30.2222 46.5232 30.3826L49.4399 33.3055ZM11.9837 20.4472C9.77116 20.1368 8.48575 20.8638 8.50658 23.3972C8.5795 32.0368 8.53575 40.6763 8.53575 49.318V50.2805H11.9837V20.4472ZM51.4149 72.4659V70.9472C51.4149 69.3263 51.1107 69.018 49.5149 69.018H24.892C24.6587 69.018 24.4232 69.018 24.1899 69.0347C23.5357 69.093 23.1045 69.4513 23.0587 70.1076C23.0066 70.8763 23.0462 71.6534 23.0462 72.4659H51.4149ZM62.4024 50.2826H65.892V49.2201C65.892 40.6576 65.892 32.0951 65.892 23.5326C65.9181 23.1153 65.9006 22.6963 65.8399 22.2826C65.7503 21.8659 65.5337 21.4618 65.3066 20.8826C64.4066 21.8159 63.692 22.6055 62.9232 23.3388C62.7441 23.5023 62.6037 23.7036 62.5122 23.9281C62.4206 24.1526 62.3803 24.3947 62.3941 24.6368C62.4108 32.9118 62.4142 41.1881 62.4045 49.4659L62.4024 50.2826ZM41.067 62.468H33.3712V66.4618H41.067V62.468ZM45.2212 32.8055L44.3357 35.5013L47.092 34.5618L45.2212 32.8055Z" fill="#295DFB"/>
<path d="M24.6504 21.543C26.1295 21.543 27.6087 21.543 29.0879 21.543C30.1545 21.543 30.5858 21.9888 30.5879 23.0722C30.5962 25.3625 30.5962 27.6541 30.5879 29.9472C30.5879 31.0388 30.1712 31.4784 29.092 31.4826C26.0823 31.4951 23.0712 31.4951 20.0587 31.4826C19.0379 31.4826 18.5879 31.0138 18.5837 29.9909C18.574 27.6743 18.574 25.3583 18.5837 23.043C18.5837 22.0013 19.0545 21.5534 20.1337 21.5493C21.6379 21.5368 23.1441 21.543 24.6504 21.543ZM21.1379 24.0847V28.9159H28.0566V24.0847H21.1379Z" fill="#295DFB"/>
<path d="M24.5545 45.3138C23.0733 45.3138 21.5941 45.3138 20.115 45.3138C19.0462 45.3138 18.5879 44.8638 18.5837 43.8034C18.574 41.4895 18.574 39.1743 18.5837 36.8576C18.5837 35.8743 19.0316 35.3993 20.0004 35.3847C23.0559 35.3638 26.1191 35.3638 29.19 35.3847C30.1691 35.3847 30.5837 35.8576 30.5879 36.8597C30.5962 39.2013 30.5962 41.543 30.5879 43.8847C30.5879 44.8638 30.1337 45.3055 29.1504 45.3138C27.6254 45.3222 26.0858 45.3138 24.5545 45.3138ZM28.042 42.7951V37.9347H21.14V42.7951H28.042Z" fill="#295DFB"/>
<path d="M45.1766 41.9972C48.1905 41.9972 51.2051 41.9972 54.2204 41.9972C55.2266 41.9972 55.7954 42.4347 55.812 43.2035C55.8287 43.9722 55.2079 44.493 54.1933 44.493C48.1627 44.493 42.1322 44.493 36.1016 44.493C35.0745 44.493 34.4725 44.0035 34.4808 43.2139C34.4808 42.4826 35.0287 42.0014 35.8975 41.9993C38.9891 41.993 42.0829 41.9972 45.1766 41.9972Z" fill="#295DFB"/>
<path d="M37.2791 57.5201C36.4229 57.5201 35.5687 57.5326 34.7145 57.5201C33.8916 57.5034 33.3875 57.0472 33.3625 56.3305C33.3375 55.5743 33.8458 55.043 34.6916 55.0326C36.3777 55.009 38.0618 55.009 39.7437 55.0326C40.5541 55.043 41.05 55.5472 41.0562 56.2701C41.0562 57.0284 40.5562 57.5034 39.6875 57.5201C38.8854 57.5326 38.0812 57.5201 37.2791 57.5201Z" fill="#295DFB"/>
<path d="M18.8749 12.6284C18.4828 12.6213 18.1094 12.4594 17.8362 12.178C17.563 11.8966 17.4121 11.5185 17.4166 11.1263C17.4138 10.7396 17.5648 10.3675 17.8364 10.0921C18.1079 9.81666 18.4777 9.66036 18.8645 9.6576C19.2513 9.65484 19.6233 9.80583 19.8988 10.0774C20.1742 10.3489 20.3305 10.7187 20.3333 11.1055C20.3382 11.3015 20.3044 11.4964 20.2337 11.6792C20.1629 11.862 20.0567 12.029 19.9212 12.1706C19.7856 12.3122 19.6234 12.4255 19.4438 12.5041C19.2642 12.5827 19.0709 12.6249 18.8749 12.6284Z" fill="#295DFB"/>
<path d="M24.6308 12.6284C24.4361 12.6225 24.2444 12.5782 24.0668 12.4981C23.8892 12.418 23.7292 12.3037 23.5958 12.1616C23.4625 12.0196 23.3585 11.8526 23.2898 11.6703C23.2211 11.488 23.189 11.294 23.1954 11.0993C23.1976 10.9078 23.2375 10.7185 23.3128 10.5425C23.3881 10.3664 23.4973 10.2068 23.6343 10.0729C23.7713 9.93908 23.9333 9.83349 24.111 9.76223C24.2888 9.69096 24.4789 9.65541 24.6704 9.6576C24.8619 9.65979 25.0511 9.69967 25.2272 9.77498C25.4033 9.85029 25.5628 9.95955 25.6967 10.0965C25.8306 10.2335 25.9361 10.3955 26.0074 10.5732C26.0787 10.751 26.1142 10.9411 26.112 11.1326C26.1137 11.3283 26.0766 11.5223 26.0029 11.7036C25.9293 11.8849 25.8204 12.0498 25.6828 12.1888C25.5451 12.3279 25.3812 12.4383 25.2007 12.5137C25.0202 12.5892 24.8265 12.6282 24.6308 12.6284Z" fill="#295DFB"/>
<path d="M31.8748 11.0951C31.8777 11.2866 31.8428 11.4768 31.7722 11.6548C31.7016 11.8329 31.5966 11.9953 31.4632 12.1327C31.3298 12.2702 31.1706 12.38 30.9948 12.4559C30.819 12.5319 30.6299 12.5724 30.4384 12.5753C30.2469 12.5782 30.0567 12.5433 29.8786 12.4727C29.7006 12.402 29.5382 12.297 29.4008 12.1636C29.2633 12.0303 29.1535 11.8711 29.0776 11.6953C29.0016 11.5194 28.961 11.3304 28.9582 11.1389C28.9553 10.9473 28.9902 10.7571 29.0608 10.5791C29.1314 10.4011 29.2365 10.2387 29.3698 10.1012C29.5032 9.9638 29.6624 9.85396 29.8382 9.77802C30.0141 9.70208 30.2031 9.66151 30.3946 9.65864C30.5861 9.65577 30.7763 9.69065 30.9544 9.76128C31.1324 9.83191 31.2948 9.93692 31.4322 10.0703C31.5697 10.2037 31.6795 10.3629 31.7555 10.5387C31.8314 10.7145 31.872 10.9036 31.8748 11.0951Z" fill="#295DFB"/>
</svg>
